<?xml version="1.0" encoding="UTF-8"?>
<svg id="Layer_1" xmlns="http://www.w3.org/2000/svg" version="1.1" xmlns:xlink="http://www.w3.org/1999/xlink" viewBox="0 0 304.5 377.6">
  <!-- Generator: Adobe Illustrator 29.2.1, SVG Export Plug-In . SVG Version: 2.1.0 Build 116)  -->
  <defs>
    <style>
      .st0 {
        fill: #191f35;
      }

      .st1 {
        fill: #fff;
      }

      .st2 {
        mask: url(#mask);
      }

      .st3 {
        fill: none;
      }

      .st4 {
        fill: #fbe2a4;
      }

      .st5 {
        clip-path: url(#clippath);
      }
    </style>
    <clipPath id="clippath">
      <path class="st3" d="M129.8,37.2l31.4,6.7,45.8,12.2,17.9.5-4,11.2-8,18-9.6,22.7-1.5,10.3,63.6,14.7,19.3,4.2,25.5,2.9s18.6-86.4,18.6-87.6-19.3-66.8-19.3-66.8l-168.6-4.5-33,42,22,13.4Z"/>
    </clipPath>
    <mask id="mask" x="4.2" y="33.7" width="209.9" height="230" maskUnits="userSpaceOnUse">
      <g id="mask0_27_32935">
        <path class="st1" d="M55.6,263.1c0-1.6,1.8-3.4,2.7-4.6,1.9-2.5,3.7-4.8,5.4-7.5,1-1.6,2.1-3.2,2.8-4.9.4-.8.6-1.7,1.1-2.4.4-.5,1.2-1,1.1-1.7-6.9-1.9-12.9-5.7-19.6-8.1-3.2-1.2-6.4-1.7-9.6-2.6-2-.5-4.3-.9-4.6-3.1-.2-1.8,0-3.9,0-5.7s-.1-5,0-7.6c0-3.6,2-6.9,2.9-10.2,1-3.5,1.2-7.2,2.5-10.6,1.1-2.8,2.6-5.5,3.8-8.3,1-2.3,1-5,1.7-7.4.6-2.2,2.3-3.6,4.1-5,2.1-1.7,2.6-4.3,4.5-6,2.9-2.6,7.6-.4,10.8,0,3.3.4,6.6,1.1,9.9,1.6,1.8.3,3.7.4,5.5.9,1.1.3,1.7.6,2.8.4.5-1.1-.7-4.5-.9-5.7-.7-3.1-1.2-6.5-1.2-9.7v-17.1c0-5.7-.5-9.8,0-14.5.2-1.9,1.1-3.8,1.5-5.7.5-2.1,1-4.1,1.4-6.2.3-1.2.3-2.9.9-3.7.5-.7,2.2-1.7,3-2.1,1.7-.7,4-.6,5.7-.3,1.2.2,2.4.1,3.6.5,1.6.5,3.3,1.3,4.8,2.1,2.2,1.1,4.3,2.2,6.6,3,3.8,1.4,8,1.6,12,1.9,5.4.4,10.4,0,15.7,1.3,3.7.9,7.3,2.1,11,3.1,4.1,1.1,8.3,1.7,12.3,3.2,3.1,1.1,6.1,1.8,9.4,2.2,2.9.3,5.7,0,8.6.6,4.5.7,9.1-.2,13.5-1.2,1.1-.3,2.2-.2,3.3-.4,1-.2.9,0,1.3-1.1.4-1.2.5-2.5.9-3.6,1-2.7,2.1-5.3,2.9-8,1-3.3,1.2-6.8,1.7-10.2.7-5.4,2.5-10.4,4.6-15.4,1.5-3.6,4-6.7,5.2-10.5.5-1.6.8-3.1,1.6-4.6.6-1.2,1.2-2.4,1.3-3.7.2-3.2-4.1-4.8-6.6-6-2-1-4-2-6.1-2.9-2.2-1-5.2-1-7.6-1.1-4.1-.2-8.1,0-12.2,0-4.7,0-9.4-.9-14.2-1.3-12.1-1.1-24.2-2.7-36.2-4.4-4.6-.7-9.2-1.7-13.7-2.9-3.8-1-7.5-2.5-11.3-3.5-5-1.3-10.1-1.4-15-2.7-2.8-.7-5.5-1.5-8.3-2.4-3.6-1.1-5.4-.4-8.4,2.1-1.9,1.6-2.8,3.5-4.1,5.6-2.2,3.4-4.5,6.6-6.6,10.1-2.4,3.8-4.6,7.9-6.3,12.1-1.7,4.1-3.2,8.4-5.6,12.1-2.2,3.3-4.1,6.7-6,10.2-1.4,2.5-3,5-4,7.7-2.1,5.6-3.9,11.4-6.3,16.9-1,2.3-2.2,4.6-2.8,7-.5,2.4-.9,4.6-1.8,7-1.8,4.8-3.5,9.6-5.7,14.2-1.1,2.4-1.8,5-2.9,7.4-1.1,2.5-2.1,4.8-2.6,7.5-.5,2.9-.8,6.1-.9,9.1,0,1.7,0,3.4,0,5.1,0,1.8-.7,3.5-1.2,5.2-1.2,4.5-1.7,9.4-3.4,13.7-1.1,2.8-1.8,5.3-2.3,8.2-.3,1.9-.5,3.9-.8,5.8-.4,2.5-1.1,5-1.5,7.6-.3,1.8-.4,3.5-.6,5.3-.2,1.8-.9,3.7-1.3,5.4-.4,1.5-.4,2.9-.4,4.4s.4,4.2,0,5.8c-.5,1.5-1.1,2.3-1,4,0,1.7-.4,3.7.5,5.1,1.3,1.9,3.2,2.9,5.2,3.7,6.4,2.2,12.4,4.7,18.5,7.4,3.6,1.6,7.5,2.7,11,4.6,1,.6,1.7,1.2,2.6,1.9,1.2.9,2.6,1.3,3.9,1.9,1,.4,4.5,1.1,4.7,2.3"/>
      </g>
    </mask>
  </defs>
  <g class="st5">
    <path class="st4" d="M297.3,5.5v87.2c0,47.9-39.2,87.2-87.2,87.2s-87.2-39.2-87.2-87.2,9.8-45.8,25.6-61.6c15.8-15.8,37.6-25.6,61.6-25.6h87.2Z"/>
  </g>
  <path class="st0" d="M82,109.2c.2,3.5,1.2,6.9,1.9,10.3.7,3.6,1,7.3,1.5,11,.9,7.6,1.3,15.2,1.7,22.8.3,7.6.4,15.2.2,22.8-.2,7.2-.6,14.4-2.1,21.5-1.5,7-3.3,14-5.6,20.7-2.2,6.7-6,12.6-9.7,18.5-4,6.3-7.7,12.8-12,18.8-2.1,2.9-4.1,5.8-6,8.8-1.7,2.8-3.5,5.5-5.5,8.1-2.2,2.8-4.6,5.4-6.9,8.1-2.3,2.8-4.4,5.6-6.9,8.1-2.4,2.4-4.9,4.6-7.1,7.1-2.3,2.6-4.8,5-7.2,7.5-1,1-1.8,2.1-2.7,3.1-.9,1-2,2.1-2.6,3.4-2.3,4.7,3,6.9,6.5,8.3,3.4,1.3,6.7,3.1,10.1,4.4,3.3,1.3,6.7,2.3,10.1,3.4,7.1,2.3,13.8,5.3,20.7,8.1,6.6,2.7,13.3,5.1,19.9,7.9,6.9,2.9,13.9,5.6,21.1,7.6,7.3,2,14.6,3.7,21.8,5.8,3.6,1.1,7.2,2.1,10.8,3,3.5.9,7.1,1.3,10.5,2.6,3.5,1.3,6.9,2.7,10.5,3.6,3.1.8,6.3,1.4,9.1,2.9.2.1.5.3.7.4.5.3-.7-.7.3.2.4.4.8.8,1.3,1.2,1.8,1.6,3.8,2.4,6.2,1.9,2.8-.6,5.1-2.7,7.1-4.7,1.9-2,3.7-4,5.7-5.8,2.6-2.3,4.9-4.8,7.2-7.4,2.4-2.7,4.9-5.3,7.2-8,2.3-2.8,4.5-5.7,6.8-8.4,2.3-2.6,4.7-5.1,6.4-8.1,1.8-3,3.8-5.9,6-8.7,2.1-2.8,4.5-5.3,6.7-8,2.4-2.9,4.5-5.9,6.7-8.9,3.8-5.5,7.8-10.9,11-16.7,1.7-3.1,3.2-6.4,4.3-9.7.5-1.5.9-3.1,1.5-4.4.7-1.6,1.5-3.1,2.2-4.6,1.5-3.2,2.4-6.4,4.4-9.3.9-1.2,1.8-2.4,2.5-3.7.9-1.7,1.6-3.6,2.5-5.3,3.2-6.6,6.9-13,10.1-19.7,3.1-6.5,4.7-13.4,6-20.4.6-3.3,1.2-6.7,1.8-10,.7-3.5,1.5-6.9,2.2-10.3.7-3.7,1.3-7.3,2.1-11,.8-3.8,1.9-7.5,2.8-11.2.9-3.7,1.4-7.4,1.4-11.2s-.3-6.7-.2-10c0-3.2.8-6.7-.6-9.7-1.2-2.6-4-3.9-6.7-4.3-.7-.1-1.5-.2-2.2-.3h-.9s-1-.1-.4,0c.6,0-.3,0-.3,0-.5,0-1-.2-1.5-.3-1-.2-2-.3-3-.5-3.7-.5-7.4-.9-11.1-1.6-3.5-.7-6.8-1.8-10.2-2.8-3.6-1-7.3-1.8-11-2.6-7.4-1.5-14.7-3.2-22-5.1-7.4-1.9-14.7-3.4-22.3-4.1-3.8-.3-7.6-.5-11.4-.8-3.8-.3-7-.8-10.7-1.3-4-.6-8-1-12-1.4-3.5-.4-7.4-.9-10.6-1.3-7.4-1-14.9-1.9-22.2-3.4-3.6-.7-7.1-1.9-10.7-2.5-1.8-.3-3.7-.4-5.5-.6-1,0-1,0-2-.3-1.3-.2-2.5-.4-3.8-.4-3.3,0-6.6.2-10,.3-.7,0-1.5.1-2.2,0,.8.2,0-.1,0-.1h.3c-.5,0-.9-.3-1.4-.5-1.9-.6-3.6-.3-5.5-.2-2.1,0-4.2,1.8-4.1,4.1,0,2.2,1.8,4.1,4.1,4.1h2.7c-.2,0-.5-.2.2,0,.3.2.7.3,1,.5,1,.4,1.8.6,2.8.7,2.3.3,4.7,0,7,0h3.7c1.3,0,2.6,0,3.5.2,1.4.2,2.9.4,4.3.6.7,0,1.3.1,2,.2h.7q.3,0,0,0h.5c2.6.5,5.2,1.4,7.8,2,2.5.6,5.1,1,7.6,1.4,5.4.9,10.9,1.6,16.3,2.4,5.7.8,11.3,1.5,17,2.1,5.6.6,10.6,1.4,16.2,2,5.4.6,10.9.7,16.4,1.2,5.1.5,10.2,1.5,15.3,2.7,5.2,1.2,10.4,2.6,15.7,3.8,5.3,1.1,10.6,2,15.9,3.3,5.2,1.2,10.2,3.1,15.5,3.9,5.1.8,10.3,1.3,15.4,2.1,1,.2,2.1.2,3.1.3.4,0,.7,0,1.1,0,.6,0-.6,0,0,0,.2,0,.5,0,.7.2.2,0,.4.1.6.2-.1,0-.6-.4-.1,0,0,0,.2.2.4.2.5.2-.5-.3-.1,0,.4.3-.5-.4,0,0,.2.2,0,0,0-.2,0,.2.1.4.1.7,0-.6,0,.2,0,.4,0,2.2-.3,4.4-.3,6.6s0,5.1.2,7.6c0,2.4,0,5-.3,7.3-.4,2.6-1.2,5.2-1.9,7.8-1.3,5.3-2.5,10.5-3.4,15.9-.9,5.1-2.2,10-3.1,15.1-.9,4.9-1.7,9.8-2.8,14.6-1.2,4.9-2.8,9.4-5.1,13.9-2.4,4.7-4.9,9.3-7.3,14-1.2,2.4-2.4,4.9-3.5,7.4-1,2.3-2.6,4.1-3.9,6.2-1.3,2.2-2.1,4.6-3,6.9-.9,2.1-2,4.2-3,6.3-1.1,2.5-1.7,5.1-2.7,7.5-.8,2-1.9,4.2-3,6.1-2.3,4.2-5.1,8.1-7.8,12-2.9,4.1-5.6,8.2-8.8,12.1-3.4,4.1-6.8,8-9.9,12.3-1.5,2-2.8,4.1-4.1,6.3-1.2,2-2.9,3.6-4.5,5.4-3.4,3.8-6.4,7.9-9.8,11.8-3.4,3.8-6.8,7.6-10.4,11.1-1.5,1.4-3.1,2.6-4.4,4.1-1.3,1.4-2.6,3-4.1,4.3-.2.2-.4.3-.6.5-.4.2-.8.5-1.1.7,0,0,.6-.3.2,0-.3,0-.5,0-.3,0h.7c.3,0,.5.4.1,0-1.5-1.5-3.1-2.8-5-3.7-4.8-2.2-10-3-15-4.7-2.5-.9-5.1-2-7.7-2.7-2.6-.7-5.2-1.1-7.8-1.7-5.2-1.3-10.4-2.9-15.6-4.3-10.3-2.9-20.8-4.9-30.8-8.8-5-1.9-9.9-4.1-14.9-6.2-4.8-1.9-9.8-3.6-14.6-5.6-5-2.1-9.9-4.3-15-6-5-1.7-10-3.1-14.9-5-2.4-.9-4.7-2-7-3-1.1-.5-2.2-.9-3.3-1.3-.6-.2-1.2-.6-1.8-1.2.3,1.2.6,2.3.9,3.5,0-.7-.5.6,0-.1,0,0,.6-.9.2-.4.4-.5.8-.9,1.2-1.3,1.1-1.2,2-2.4,3.2-3.5,2.5-2.5,4.9-5.1,7.3-7.8s5.2-5,7.6-7.6c2.5-2.7,4.7-5.8,7.1-8.6,2.4-2.8,4.8-5.5,7-8.5,2.1-2.9,4-6,5.9-9,1.9-3.1,4.1-6,6.2-9,2.2-3.2,4.2-6.6,6.3-9.9,3.9-6.4,8.2-12.6,11.5-19.3,3.3-6.8,5.2-14.1,6.9-21.4,1.8-7.4,3.1-14.9,3.5-22.5.4-7.7.3-15.4,0-23.1-.3-9-1.1-18-2.3-26.9-.6-4.3-1.3-8.5-2.1-12.8-.7-4-2.3-7.9-2.7-11.9-.2-2.5-4.2-2.6-4,0l-.7-1.4Z"/>
  <path class="st0" d="M118.3,155.2c0,1.5.8,2.8,1.1,4.2.2.7.3,1.4.5,2.1,0,.3,0,.6.2.9.3,2.2.6,5.1,2.7,6.4,1.6,1,3.2.2,4.6-.8,1-.8,2-1.6,2.9-2.5,2.5-2.2,4.6-4.7,7.1-6.9,1.2-1.1,2.6-2.1,3.7-3.4.4-.4.7-.9,1.1-1.3s.4-.4.7-.7c0,0,0-.1.2-.2.2-.2,1.1-1.1.2-.2-.9.2-1.9.5-2.8.7,1.1.3,2,0,2.8-.7,1.9-1.8.3-4.7-2-4.9-1.7-.1-2.9,1.3-3.9,2.5-1,1.2-2.1,2.2-3.3,3.3-2.8,2.5-5.4,5.2-8.1,7.9-.5.5-1.1,1-1.6,1.6-.2.2-.4.4-.6.6,0,0-.2.2-.3.3.4-.4,1-.5,1.7-.3.3,0,.5.2.7.4q-.2-.2,0,.1c-.1-.2-.3-.5-.4-.7.2.4,0,0,0-.2,0-.3-.2-.6-.3-.9-.3-1.1-.6-2.2-1-3.3-.3-.8-.7-1.6-1.1-2.4-.4-.7-1-1.3-1.1-2.1-.4-2-3.4-1.5-3.4.5h-.3Z"/>
  <path class="st0" d="M112.2,201.2c-.7,1.5-.6,3.3-.5,5,.1,1.4.3,2.8.5,4.2.3,2.5.4,5.5,2,7.6.5.8,1.4,1.5,2.5,1.4,4-.5,7.4-3.8,10.4-6.3,1.5-1.3,3-2.6,4.5-3.8.6-.5,1.2-1,1.8-1.6l.8-.8s.5-.3.2-.2c-.1,0-.5.2,0,0,2.4-.5,2.5-4.4,0-4.9-2.2-.4-4,.6-5.6,2-1.4,1.3-2.9,2.5-4.4,3.8-1.4,1.2-2.9,2.5-4.3,3.5s-1.5,1-2.2,1.5c-.4.3-.8.6-1.2.8,0,0-.5.3-.3.2.2,0-.5.1-.5.1.9.2,1.8.5,2.8.7.4.4,0-.2,0-.3,0,0-.3-.8-.2-.3-.2-.5-.3-1-.5-1.5-.3-1-.4-2.1-.6-3.1-.3-1.3-.6-2.5-.8-3.7-.3-1.4-.4-3-1.1-4.4-.6-1.1-2.5-1.2-3.1,0h-.1Z"/>
  <path class="st0" d="M97.2,247.6c-.4,2.2,0,4.3.3,6.5.2,1.2.2,2.5.6,3.8.7,2.4,3.2,2.5,5.2,1.6,1.7-.8,3.5-1.6,5.3-2.5,3.5-1.7,7-3.6,10.5-5.5,1.6-.9,3.2-1.8,4.7-2.8,1.6-1.1,3.5-2.4,4.5-4.2,1.2-2.4-1.3-5.1-3.7-3.7-1.1.6-1.9,1.5-2.9,2.2-.8.6-1.7,1.2-2.5,1.7-1.9,1.2-4,2.3-6,3.4-2.2,1.2-4.3,2.5-6.5,3.6-1.2.6-2.4,1.2-3.6,1.9-.6.3-1.2.6-1.8,1-.1,0-.3.2-.4.3-.6.5-.4-.2.6.1l1.1.6c.3.3.3.6.2.2,0-.2-.1-.5-.2-.7-.2-.7-.4-1.3-.6-2-.6-1.8-1.1-3.6-1.5-5.5-.3-1.6-2.9-1.6-3.2,0h-.1Z"/>
  <path class="st0" d="M75.1,286.8c-.3,2.3-.2,4.7-.4,7,0,1.7-.3,3.4.8,4.9,1.6,2.1,4.5,1.8,6.8,1.4.9,0,1.8-.4,2.7-.7.2,0,.5-.2.7-.3.3,0,.5-.2.8-.3,0,0-.4.2,0,0,.5-.2.9-.3,1.4-.5,2.4-.8,6.5-2,6.3-5.2,0-1.4-1-2.3-2.4-2.4-1.5-.1-2.4.8-3.6,1.4-.3.1-.5.3-.8.4.7-.3,0,0-.1,0-.5.2-1,.4-1.5.6-.7.3-1.3.5-1.9.8-.2,0-.3.1-.5.2q.3,0,0,0c-.2,0-.4.2-.6.2-.5.2-1,.3-1.5.4h-.4c.3,0,.4,0,.2,0h-2c.4,0,.5,0,.2,0-.4-.1.4.2.6.4-.2-.2-.1,0,.2.2,0-.2,0,0,0,.3v-.4q0,.5,0,.3v-1.4c0-2.5-.1-5-.4-7.4,0-1.1-.9-2.2-2.2-2.2s-2,1-2.2,2.2h0Z"/>
  <path class="st0" d="M163.7,167.9c1,1.1,2,2.3,3.3,3,1.5.7,3,.8,4.6.5,1.5-.2,3-.7,4.3-1.6,1.3-.9,2.3-2.2,3.4-3.3-.9-.7-1.9-1.5-2.8-2.2-1.9,3-.2,8.5,3.8,8.4.8,0,1.8-.6,2.6-.5.8.2,1.5,1.1,2.3,1.4,2.3,1,4.6.6,6.9-.3.8-.3,1.5-.7,2.3-.3,1,.5,2,1.1,3.1,1.4,2.5.8,5.1,1.2,7.8,1.3s5.3.2,8,.5,5.5.1,8.2.4c2.9.2,5.9.6,8.8.9,2.1.2,4.8.1,6.7,1.3,1.9,1.2,3.3-1.3,2.2-2.8-1.3-1.6-3.5-1.9-5.4-2.1-2.2-.2-4.5-.4-6.7-.6-2.6-.2-5.1-.5-7.7-.5s-5,0-7.5-.3c-4.7-.4-10,.1-14.3-2-.8-.4-1.5-1-2.4-1.3-1.1-.3-2.2-.1-3.3.2-1.8.6-3.6,1.6-5.4.4-1-.6-1.9-1.3-3.1-1.4-.6,0-1.1,0-1.7.2-.3,0-1.1.5-1.4.4-.7-.2-.8-2.2-.5-2.8,1.1-1.7-1.4-3.7-2.8-2.2-1.6,1.8-2.8,3.4-5.2,4.1-1,.3-2.2.5-3.2.1-1.1-.4-1.9-1.4-2.7-2.2-1.2-1.3-3,.6-1.9,1.9h-.3Z"/>
  <path class="st0" d="M157,219.4c5,0,12.4.2,13.8-5.9.3-1.2-.6-2.4-1.8-2.7-1.1-.3-2.2.1-3.1.6-1.6.8-3.2,2.2-3.7,4-.9,2.7,1.2,4.9,3.7,5.5,1.4.3,2.7,0,4.1.2,1.3.2,2.6,1.2,3.7,1.8,1.3.7,2.7,1.3,4,2,1.4.7,2.7,1.6,4.1,2.3,2.3,1.2,4.7,1.8,7.3,1.7,4.5-.1,9.3-1.7,12.6-4.8,1.6-1.5,2.6-3.3,3.2-5.4.5-1.8,1.2-3.9.3-5.6-1.2-2.3-4.3-2.1-6.2-.9-1.9,1.2-3.4,3.3-4.4,5.3s-1.8,4.3-1.2,6.5c.9,3,4.4,3.8,7.1,3.5,2.9-.3,5.1-2,7.8-2.8.2,0,.4-.1.7-.2,0,0,.6-.1.6,0h-.2c0,0-.3-.3,0-.1.3,1.3.8,2.7,1.3,3.9.6,1.4,1.6,2.5,3,3.2,1.7.8,3.3.6,5.1.4,2.7-.3,5.5.8,7.4-1.9.7-1,.3-2.5-.6-3.2-1.1-.8-2.2-.6-3.2.2,0,0,.6-.5.7-.4h-1.4c-.7,0-1.3,0-1.9,0-.9,0-1.8.3-2.7.3s-1.1-.1-1.3-.5c-.8-1.1-.8-2.7-1.4-4-.8-1.9-2.3-3-4.4-3.2-3.5-.3-6.3,2.4-9.6,3-.6.1-1.2.2-1.8,0l-.4-.2c0-.1-.7,0,0,0,.2-.2,0,.8.2,0,.1-1,.4-2.1.9-3.1.5-1.1,1.2-2.4,2.2-3.1.2-.1.4-.2.6-.3.4.2.3-.2,0,0-.3-.2-.5-.2-.7-.5-.2-.3,0-.6-.1,0v.6c-.6,2.3-1.3,4.2-3.2,5.7-2.2,1.7-5.1,2.7-7.8,2.9-1.5.1-2.9,0-4.3-.4-1.7-.5-3.2-1.7-4.8-2.5-2.1-1.1-4.2-2.1-6.2-3.2-1-.6-2.1-1.1-3.3-1.4-1.2-.3-2.3-.1-3.5,0-.5,0-.9-.1-1.3-.1,0,0-.5,0-.3,0,0,0,.3.2.1,0-.2.2,0,0,0,0,.4-.4.8-.9,1.3-1.2,0-.1.6-.3.7-.5,0,.1-1.2-.7-.9-.2l-.5-1.9c-.3,1.1-.2,1.6-1.1,2.4-.8.7-1.7,1.2-2.7,1.6-2.1.8-4.2.7-6.4.7s-1.4,2.2,0,2.2v-.2Z"/>
  <path class="st0" d="M144.9,257.5c3.1-.6,5.9-1.5,7-4.8.3-.8-.2-1.6-.8-2.1-1.9-1.3-3.7.4-4.6,1.9-1.3,2.2-1.4,4.8.9,6.4,2.1,1.5,4.1.9,6.3.3.9-.2.9,0,1.7.6,1,.8,2.2,1.1,3.5,1.2,1.2,0,2.3.3,3.4.4,1.1,0,2.3,0,3.3.4,2.2.9,4,2.6,6.2,3.5,2.4,1,4.6,1,7.2.9.9,0,1.7,0,2.5.4,1,.7,1.7,1.6,2.8,2.2,2.3,1.2,4.7,1.3,7.2,1.6,1.3.2,2.5.8,3.8,1.2,1,.3,1.9,1.1,2.9.9,1.4-.2,1.7-1.9.3-2.4.4,0-.1-.3-.3-.5-.3-.3-.6-.6-1-.8-.9-.5-2-.9-2.9-1.3-1.8-.8-3.8-.8-5.8-1.2-.8-.2-1.6-.4-2.3-.9-.8-.5-1.4-1.3-2.2-1.9-1.6-1.4-3.4-1.6-5.5-1.6s-3.8,0-5.5-.9c-1.8-1-3.4-2.3-5.3-3.2-2.1-1-4.1-.8-6.3-1.1-.9,0-1.9,0-2.8-.3-.7-.2-1.2-.9-1.8-1.3-1-.6-2.3-.7-3.4-.5-1,.1-2,.6-3,.7h-.5c-.2-.2-.2-.1,0,.3v-.4c0-.3.2-.8.3-1.1.2-.5.4-.4,0-.3h-1c-.3-.7-.6-1.4-.8-2.1-.6,1.7-2.9,1.8-4.5,2.1-2.4.5-1.4,4.1,1,3.6h0Z"/>
  <path class="st0" d="M120.9,301.2c1.6-.4,3.3-.8,4.7-1.7,1.5-.9,2.4-2.3,2.9-4,.7-2.1-2.9-3.1-3.3-.9-.2,1.4-.3,2.9.5,4.2,1,1.6,2.4,1.6,4,1.8,1.6.2,3.3,1,4.7,1.6,1.8.8,3.8,1.2,5.7,1.7,3.9,1.1,7.9,1.8,11.7,3.1,3.8,1.3,7.8,2.2,11.6,3.5,2.1.7,4.3,1.3,6.4,1.8,1,.2,2,.7,3,.9.7.2,1.5,0,2.1.5.8.5,2,.2,2.5-.5.6-.8.5-1.8-.2-2.6-.7-.8-1.6-1.2-2.6-1.5s-1.9-.7-2.9-1c-2.2-.7-4.6-1.1-6.8-1.8-2.4-.8-4.9-1.5-7.3-2.1-2.3-.6-4.5-1.4-6.8-2.1-4.6-1.4-9.5-2-14-3.5-2-.7-4-1.5-6-1.9-.5,0-1-.1-1.6,0-.3,0-.5,0-.4,0-.4-.3-.3-1.5-.4-2-1.1.3-2.2.6-3.3.9.6,1.8-3.9,2.8-5,3.1-1.7.5-1,3,.7,2.6h.1Z"/>
  <path class="st0" d="M9.7,238.2c1.5-6.1,2.9-12.3,4.2-18.5,1.3-6.1,2.1-12.3,3.4-18.4,2.6-12.1,6.3-23.9,9.4-35.9.8-3,1.5-6,2.2-9,.7-3.2,1.1-6.4,1.6-9.6.4-3,1-6,1.7-9,.6-3,1.2-5.9,1.9-8.9,1.5-6,3.6-11.9,5.4-17.8,1.8-5.8,3.7-11.5,6.1-17,2.4-5.5,5-10.9,7.6-16.3,2.6-5.5,4.8-11.2,7.5-16.6,1.4-2.7,2.8-5.4,4.4-8.1,1.5-2.5,2.9-5.2,4.5-7.7,3.1-4.8,6.5-9.5,9.2-14.6.1-.2.4-.6.5-.8,0,.5-4.6.6-1.5.6-1.5,0-1.1-.5-.6,0s.5.3.7.5c1.2.8,2.7,1.4,4.1,1.9,2.8.9,5.7,1.3,8.6,1.6,6.3.8,12.7,1.3,19,2.1,6,.7,11.9,1.9,17.7,3.5,5.8,1.7,11.6,3.9,17.6,5,6.1,1.2,12.4,1.9,18.5,3.1,3,.6,5.9,1.4,8.8,2.1,3,.7,5.8,1.9,8.7,2.7,5.9,1.7,12,2.7,17.9,3.8,3.1.6,6.3,1.2,9.5,1.8,3.3.6,6.7,1.5,10,1.7,1.4,0,2.1.2,3.5.7.8.3,1.7.5,2.6.6h.5c1.5,0-.5.2-1.3-.7l-1-1.7c0-.3,0-.9.1-1,.3-1.1.1-.4-.1-.1-.2.2-.3.5-.5.7-.7.9-1.2,1.9-1.8,2.8-1.1,1.8-2.1,3.7-3.2,5.5-2.2,3.8-4.4,7.6-6.4,11.5-4,7.8-6.6,16.2-9.7,24.4-.8,2.1-1.9,4.2-2.4,6.4,0,.6-.2,1.2-.3,1.9v.3c0,.5.2-1,0-.1,0,.3-.2.7-.2,1,0,.5.4-.6.1-.2-.1.2,0,0,.1-.1.3-.5.8-.8,1.3-.9l4.8,2.7c0-.2,0-.3-.1-.5-.5-2-2.8-3.3-4.8-2.7-2,.7-3.2,2.7-2.7,4.8,0,.2,0,.3.1.5.5,2,2.8,3.3,4.8,2.7,2-.6,3.2-2.1,3.8-4.1,0-.4.2-.9.3-1.4,0-.5.1-1,.2-1.6.2-1.3-.3,1,0-.3,1-3.4,2.5-6.6,3.7-9.9,2.6-7,4.7-13.5,8.2-20.1,1.8-3.3,3.6-6.6,5.5-9.8,1.8-3.1,3.4-6.3,5.5-9.2,1.1-1.6,1.7-3.4,1.1-5.3-.4-1.1-1.2-2.1-2.2-2.7-.7-.4-1.4-.6-2.2-.6h-1.1.5c-.3,0-.6,0-.9-.1-.4-.1-.8-.3-1.3-.4-.9-.3-1.9-.5-2.8-.5s-1.7,0-2.4-.1c-1.1-.2-2.3-.4-3.4-.6-7.6-1.4-15.1-2.8-22.7-4.3-3.5-.7-7-1.4-10.4-2.5-1.6-.5-3.2-1.2-4.9-1.7-2-.6-4-.9-6-1.4-7.4-1.9-14.8-2.8-22.3-4-7.3-1.2-14.4-3.9-21.6-5.7-7.5-1.9-15.3-2.8-23-3.5-3.7-.4-7.5-.7-11.2-1.1-3.1-.4-6.5-.6-9.4-1.8-1.4-.6-2.4-1.6-3.8-2.1-2.4-.7-4.5.4-5.9,2.4-.9,1.2-1.4,2.6-2.2,3.9-1,1.6-2,3.3-3,5-1.9,3-4,5.8-5.8,8.8-1.9,3.2-3.8,6.4-5.5,9.6-3.5,6.6-6.2,13.5-9.3,20.3-3.1,6.8-6.4,13.5-9.2,20.4-2.8,6.9-4.9,14.1-7,21.3-1,3.5-2.2,7-3.1,10.5-1,3.7-1.6,7.5-2.4,11.2-.8,3.8-1.3,7.5-1.8,11.3-.4,3.8-1.2,7.5-2,11.2-1.7,7.4-3.8,14.8-5.5,22.2-1.7,7.3-3.3,14.8-4.1,22.3-.9,7.5-1.7,15-2.9,22.5-.6,3.7-1.3,7.4-2,11-.3,1.4,1.9,2.1,2.2.6l.3-.4Z"/>
  <path class="st0" d="M8,250c1,0,2,0,2.9.3.9.2,1.7.7,2.5,1.2,1.8,1.1,3.7,2.1,5.6,3.1,3.5,1.9,7.1,3.2,10.9,4,3.6.8,7.2,1,10.5,2.7,1.7.9,3.4,1.5,5.3,2,1,.2,2,.6,3.1.6h1.3c.9,0,.4-.2-1.4-.9,0-.8-.2-1.6-.3-2.4-.2.5-.2.9-.2,1.4.1,2.3,2.3,3.3,4.3,2.5.4-.2.8-.5,1.1-.9,1-1.1,1.1-2.4.5-3.8-.5-1.2-1.7-1.9-3-2.1-.7,0-1.4,0-2.1,0-1.4,0-3.3-.6-4.6-1.2-2-.9-3.9-1.9-6.1-2.3-2-.3-3.9-.5-5.9-.9-4-.8-7.8-1.9-11.5-3.7-2.1-1-4.1-2-6.2-2.8-2.3-.8-4.3-.7-6.6-.5-2.3.2-2.4,3.5,0,3.6h-.1Z"/>
  <path class="st0" d="M84.8,169.7c-2.6-.8-5.2-1.8-7.8-2.6-2.5-.8-5-1.2-7.5-2.3-2.4-1-4.9-1.8-7.4-2.4-.9-.2-2.1-.4-2.9-.7-1-.4-1.9-1.1-2.9-1.5-2.7-1.1-5.3-.3-7,2-1.2,1.7-2.3,3.6-3.1,5.5-1,2.3-1.9,4.7-2.8,7.1-.8,2.4-2,4.6-2.9,7-.9,2.5-1.5,5.1-2.5,7.6-.4.9-1,1.6-1.4,2.5-.6,1.3-.7,2.7-1.1,4-.7,2.4-2.3,4.3-2.3,6.9s0,1.9-.4,2.9c-.4,1.1-.9,2.2-1.1,3.3-.5,2.6.2,5.2-.2,7.8-.2,1.1-.2,2.2-.6,3.3-.4,1.2-.5,2.3-.4,3.5,0,1.1.2,2.3.8,3.3.1.2.3.4.4.6,0,0,.3.6.2.3,0-.4,0,.3,0,.4,0,.4,0,.8.2,1.2.4,1.2,1.5,2.1,2.8,2.4,1.1.3,2.3,0,3.4.1,2.6.4,5.1,1.5,7.5,2.5,2.6,1.2,5.5,1.3,8.2,2.3,2.3.9,4.3,2.3,6.7,2.7,1.1.2,2.1.4,3.1.9,1.5.7,2.8,1.2,4.5,1.4,1.3.2,2.5-1.2,2.7-2.4.2-1.3-.6-2.6-1.9-3-1.5-.4-2.7-1.2-4.1-1.7-1.3-.5-2.6-.5-3.9-.9-1.2-.3-2.2-1-3.4-1.5-1.5-.7-3.1-1.3-4.7-1.6-1.5-.3-3-.5-4.4-1-1.4-.5-2.8-1.2-4.3-1.6-1.6-.4-3.2-.9-4.8-1.1-.8-.1-1.5-.2-2.3-.1h-.9c-.4,0-.3-.1-.1,0l.9.9v.4-.7c0-.5-.1-.9-.3-1.3-.2-.5-.7-1.2-.8-1.6-.4-1.2.3-2.5.6-3.6.4-1.7.7-3.6.8-5.4,0-1.6-.3-3.3,0-4.9.3-1.6,1.2-2.9,1.6-4.5.4-1.4.1-3.1.6-4.3.6-1.6,1.6-3,2-4.7.2-.7.2-1.4.4-2.1.2-.7.8-1.3,1.1-2,1.6-3.2,2.1-6.7,3.5-10,.7-1.6,1.5-3.1,2.1-4.7.7-1.7,1.3-3.5,2-5.2.5-1.4,1-2.8,1.7-4.1.6-1.1,1.5-2.2,2.1-3.4v.2c.2-.3.1-.3-.4.1h-.3s1.3.6,1.5.7c1.6.8,3.1,1.3,4.9,1.6,1.9.3,3.8.8,5.8,1.2,2,.5,4,1.1,6,1.4,4.1.5,8,1.6,12,2.5,2.2.5,3.1-2.7.9-3.4v-.2Z"/>
  <path class="st0" d="M52.9,161.9c-.4,1.8-.5,3.5,0,5.3.3.9.8,1.8,1.2,2.7.5,1,.8,2.1,1.4,3.1.5.9,1.1,1.6,1.7,2.4.7.9,1.2,2,1.8,3,1,2,1.9,4,2.7,6.1,1.8,4.2,3.6,8.4,5.9,12.4,2.3,3.8,5.1,7.4,6.8,11.4.5,1.1.9,2.2,1.6,3.2.6.8,1.5,1.5,1.9,2.4.4.9.4,1.8.8,2.7.5,1,1.3,1.7,1.9,2.6l1.1-2.7h-.4c-2.3.6-1.3,4.1,1,3.7h.4c1.1-.3,1.7-1.8,1.1-2.8-.5-.7-1.1-1.3-1.5-2-.4-.7-.5-1.5-.8-2.3-.6-1.9-2.3-3-3.2-4.7-1-1.9-1.8-3.9-2.9-5.7-1.1-1.9-2.3-3.7-3.5-5.5-2.4-3.7-4.4-7.6-6.1-11.7-1.7-3.9-3.2-8.3-5.9-11.7-.7-.9-1.4-1.7-1.9-2.7s-.9-2.1-1.4-3.1-1.1-1.8-1.4-2.9c-.2-1-.3-2-.6-3-.2-.9-1.7-.9-1.9,0v-.2Z"/>
  <path class="st0" d="M38.8,224.9c.2-.6.8-.5,1.4-.7,1-.3,1.9-.7,2.8-1,1.7-.6,3.4-1.1,5.1-1.6,3.5-1,6.9-2.1,10-4.1,1.7-1.1,3.3-2.3,4.8-3.4,1.6-1.2,3.3-2,4.9-3s3.1-2.3,4.7-3.4c1.6-1.1,3.2-2.2,4.9-3.2,1.6-1,3.2-2,4.9-3,.7-.4,1.5-.8,2.3-1.1.9-.3,1.9-.4,2.7-.9.9-.5,1-2.1,0-2.6-3.5-1.5-6.9,1.7-9.7,3.4-3.6,2.2-7.1,4.3-10.4,6.8-1.6,1.2-3.5,1.9-5.1,3-1.8,1.2-3.6,2.6-5.4,3.8-1.7,1.1-3.3,2.1-5.2,2.8-1.8.7-3.6,1.2-5.5,1.8-2.1.7-4.1,1.7-6.1,2.6-1.5.7-3.2,1.6-3,3.5,0,1.1,1.7,1.4,2,.3h-.1Z"/>
  <path class="st0" d="M89.7,67.5c-.3,2.1-1.8,4.8-.8,6.9.9,1.9,3.3,2.1,5.1,2.3,2.6.2,5.1-.5,7.2-1.9,2-1.3,4-3.1,4.5-5.6l-2.9,1.2c-1-.5-.6-1.7-.7-.8v2.1c0,1.2.3,2.4,1.2,3.3,1.8,1.7,4.9,1.9,7.3,1.5.6-.1,1.2-.3,1.9-.5.6-.2.4-.2.7,0,.5.3.9.9,1.4,1.2.7.5,1.5.9,2.4,1.1,3,.9,7.1.2,9.8-1.3l-1.2.3c-.4,0,.4.3.5.4.3.2.5.4.8.6.6.4,1.2.8,1.8,1.2,1.3.8,2.6,1.6,4.1,1.8s3.1,0,4.6,0,1.7,0,2.6-.1c4.3-.4,9.4-1.7,10-6.7.2-1.3-1.5-2.5-2.6-2-3.4,1.3-4.3,6.8-1.1,8.9,1.4.9,3.4,1.2,5,1.6.5,0,1.1.2,1.6,0,.5,0,.4,0,.8.2.7.5,1,1.5,1.7,2.1,1.7,1.5,3.8,2,6,2.4,2.2.4,4.4.7,6.6,1,2.2.3,4.2,1.2,6.4,1.6.7.1,1.4,0,2.1,0h.9c.4,0,.5.4.2-.2.8,1.9,3.3,1.2,3-.8-.2-1.4-1.5-2.2-2.8-2.4-1.5-.2-2.7,0-4-.4-2.1-.5-4-1.2-6.2-1.4-2-.2-4-.6-5.9-1-1.7-.3-3.4-.7-4.5-2.2-.5-.7-.9-1.5-1.6-2-.8-.6-1.6-.6-2.5-.6s-1.8-.4-2.7-.7c-.5-.1-1.4-.2-1.8-.6-.3-.2-.3-.3-.2-.7,0-.3,0-.6.2-.9,0-.4.3-.2,0-.2l-2.6-2.6c0,.4-.3.6-.5.8-.3.2-1.1.7-1.5.9-1.1.5-2.7.8-3.7.9-1.4.1-2.7.1-4.1.2-1,0-2,.2-2.9,0-1-.3-1.8-.9-2.7-1.5-1.8-1.2-3.7-3.1-6-2.1-1.7.7-4.2,1.4-6,.9-1.7-.5-2.6-2.2-4.4-2.5-1.9-.3-3.5.7-5.3.6-.7,0-1.5-.3-2.1-.3-.2-.3-.3,0,0,0s.2.2.2.4v-.2c0,.2,0-.5,0-.7,0-1.7-.2-4-2.2-4.5-.9-.2-2.3.3-2.5,1.4-.4,3.2-4.6,5.2-7.5,5.2s-2.6.2-3.1-.5c-.4-.5,0-2,0-2.5,0-1,.2-1.9,0-2.9,0-1.1-1.6-1.1-1.7,0l-.3.2Z"/>
  <path class="st0" d="M66.8,121.7c1.1,1.1,2.5,1.5,4,1.8,1.5.4,2.8,1.3,4.3,1.9,1.6.7,3.3.9,4.9,1.4.7.2,1.4.5,2.1.8.7.4,1.4.8,2.1,1.2.9.4,2,.4,2.6-.5.6-.8.6-1.9-.2-2.6-2.6-2.5-6.4-2.6-9.6-3.3-1.6-.3-3-1.1-4.6-1.4-1.4-.3-3-.2-4.2-1.1-1.1-.8-2.5,1-1.5,1.9h.1Z"/>
  <path class="st0" d="M62.9,138.3c.9.5,1.5,1.1,2.4,1.6,1.1.5,2.2,1.2,3.4,1.6,2.3,1,4.8,1.8,7.1,2.7,2,.8,4.5,1.3,6.3,2.6.9.7,1.8,1.4,2.9,1.7,1.2.3,2.5,0,3.7.2,3.3.2,3.3-4.9,0-5.1-.4,0-.7,0-1.1,0-1.9-.4-3.9,2.1-2.1,3.6.6.5,1.2.9,1.8,1.3l1.3-4.8c-.9,0-1.9.3-2.7,0-.8-.3-1.4-1-2.1-1.4-1.1-.6-2.4-.9-3.6-1.3-1.2-.4-2.3-.8-3.5-1.2-2.2-.7-4.6-1.3-6.8-2-1.1-.4-2.2-.8-3.3-1.1-1-.2-1.7-.8-2.7-1.1-1.7-.5-2.7,2-1.2,2.8h.2Z"/>
  <g class="st2">
    <g>
      <path class="st0" d="M204.3,146.5c1.4.5,2.2-.4,2.2-1.7s-.9-.9-1.4-1.4c-.6.4-1.5.7-1.6,1.2-.1.6.4,1.7.9,1.9h-.1Z"/>
      <path class="st0" d="M204.9,133.6c.7-.3,1.7-.4,1.9-.9s-.2-1.7-.7-1.9c-1.1-.6-2.3-.2-2.5,1.1,0,.5.9,1.1,1.3,1.7Z"/>
      <path class="st0" d="M204.5,119.8c.6-.2,1.2-.5,1.8-.7-.2-.3-.5-.9-.6-.8-.6.2-1.2.5-1.8.7.2.3.5.9.6.8Z"/>
      <path class="st0" d="M204.4,159.1c.5.2,1.7-.2,1.9-.7.6-1.2,0-2.3-1.3-2.4-.5,0-1.1.8-1.7,1.3.3.6.6,1.6,1.1,1.8Z"/>
      <path class="st0" d="M198.6,213.8c-.8,1-.3,2.1.9,2.4.5.1,1.2-.6,1.8-.9-.2-.6-.3-1.5-.8-1.8-.4-.3-1.5,0-1.8.4h-.1Z"/>
      <path class="st0" d="M199.4,125.8c-.3-.6-.6-1.2-.9-1.8-.3.2-.8.6-.8.7.2.6.5,1.2.8,1.8.3-.2.6-.5.8-.7h.1Z"/>
      <path class="st0" d="M198.6,139.4c.4.2,1.3-.4,2-.7-.3-.7-.5-1.5-1-2-.8-.7-1.7-.3-1.8.7,0,.6.3,1.7.8,1.9h0Z"/>
      <path class="st0" d="M198.5,203.6c.3-.6.6-1.2,1-1.8l-.8-.8c-.3.6-.7,1.2-.9,1.8,0,.2.5.5.7.8Z"/>
      <path class="st0" d="M199.6,190.7c.5-.5.7-1.3,1-2-.7-.3-1.6-.9-2-.7-.5.2-.9,1.3-.8,2,.1,1,1,1.4,1.8.7Z"/>
      <path class="st0" d="M199.6,149.4c-.8-.6-1.7-.3-1.8.7,0,.6.3,1.7.8,1.9.5.2,1.3-.4,2-.6-.3-.7-.5-1.5-1-1.9h0Z"/>
      <path class="st0" d="M205.8,210.6c.3-.7,1-1.4.8-1.9,0-.4-1.2-.9-1.8-.9-.9,0-1.2.8-.9,1.7.6.4,1.3.7,1.9,1.1Z"/>
      <path class="st0" d="M206.6,196c.2-.5-.4-1.3-.6-2-.7.3-1.5.4-1.9.9-.6.8-.3,1.7.7,1.8.6,0,1.7-.3,1.9-.8h-.1Z"/>
      <path class="st0" d="M203.5,246.5c-.2.5.2,1.6.7,1.9,1.2.7,2.1,0,2.2-1.3,0-.5-.7-1.1-1.1-1.6-.6.3-1.6.5-1.7,1h0Z"/>
      <path class="st0" d="M206.7,222.2c-.3-.7-.4-1.8-.8-1.9-.5-.2-1.4.4-2,.6.3.7.5,1.5,1,2,.7.6,1.5.3,1.9-.7h-.1Z"/>
      <path class="st0" d="M211.8,152.1c.5,0,1.1-.7,1.6-1-.4-.6-.7-1.3-1.2-1.7-.7-.6-1.5-.3-1.9.6-.5,1.3.2,2.1,1.4,2.2h.1Z"/>
      <path class="st0" d="M204.7,261.3c.6,0,1.7-.4,1.9-.9.2-.5-.4-1.3-.6-2-.6.3-1.5.5-1.9,1-.6.8-.3,1.7.7,1.9h-.1Z"/>
      <path class="st0" d="M204.8,184.5c.6-.3,1.6-.4,1.8-.9.2-.5-.2-1.7-.6-1.9-1.2-.5-2.1.2-2.3,1.3,0,.4.7.9,1.1,1.4h0Z"/>
      <path class="st0" d="M204.9,236.1c.5,0,1.1-.8,1.6-1.2-.3-.7-.5-1.7-1-1.9-.5-.2-1.7.2-2,.8-.7,1.2,0,2.2,1.3,2.4h.1Z"/>
      <path class="st0" d="M211.5,126.8c.5.2,1.7-.3,1.9-.7.6-1.3-.2-2.2-1.4-2.3-.5,0-1,.8-1.5,1.3.3.6.6,1.6,1,1.7Z"/>
      <path class="st0" d="M204.9,169c-.5.4-.7,1.3-1,2,.7.3,1.5.9,1.9.7.5-.3.6-1.3.9-1.9-.3-1-1-1.4-1.8-.7h0Z"/>
      <path class="st0" d="M186.9,190.2c-.3-.6-.5-1.3-.8-1.9-.3.2-.9.5-.8.7.1.7.5,1.3.7,1.9.3-.2.6-.5.9-.7Z"/>
      <path class="st0" d="M186,201.1c-.2,0-.7.4-.9.7-.4.9,0,1.7.9,1.9.2,0,.6-.5.9-.7.3-.9,0-1.6-.9-1.9Z"/>
      <path class="st0" d="M186,255.3c.3-.6.6-1.2.9-1.7-.3-.2-.5-.5-.8-.7-.3.6-.7,1.1-.8,1.8,0,.2.5.5.7.7h0Z"/>
      <path class="st0" d="M198.1,163.7c.1.9.7,1.3,1.6,1,.3-.3.5-.5.8-.8-.6-.3-1.1-.7-1.7-1-.1,0-.7.5-.7.8Z"/>
      <path class="st0" d="M186.7,240.8c0-.2-.4-.5-.6-.8-.2.2-.7.4-.7.7s.4.5.6.8c.2-.2.7-.4.7-.7Z"/>
      <path class="st0" d="M186.9,215.5c-.3-.6-.5-1.3-.8-1.9-.3.2-.9.5-.8.7.1.6.5,1.3.7,1.9.3-.2.6-.5.9-.7Z"/>
      <path class="st0" d="M186.1,175.5c-.5-.2-1.6.2-1.8.6-.5,1.2.2,2.1,1.3,2.3.4,0,.9-.7,1.4-1.1-.3-.6-.4-1.6-.9-1.8Z"/>
      <path class="st0" d="M191.4,145c.7.4,1.3.8,2,1.2.3-.7.9-1.5.8-2-.2-.5-1.2-1-1.9-.9-1,0-1.2.9-.9,1.8h0Z"/>
      <path class="st0" d="M191.3,156.5c-.8,1.1-.3,2.1.9,2.4.5.1,1.2-.6,1.8-.9-.2-.7-.3-1.6-.8-1.9-.4-.3-1.6,0-1.9.4Z"/>
      <path class="st0" d="M191.7,119.9c.7-.2,1.4-.5,2-.8-.2-.3-.6-.9-.7-.9-.7.2-1.4.5-2,.8.2.3.6.9.7.9Z"/>
      <path class="st0" d="M199.5,178.2c.6-.4.8-1.3,1.1-2-.7-.3-1.6-1-2.1-.8-.5.2-.9,1.3-.8,2,.1,1,1.1,1.4,1.8.8Z"/>
      <path class="st0" d="M199.6,229.1c1,0,1.3-.9.9-1.8-.7-.4-1.3-.8-2-1.2-.3.7-1,1.5-.8,2.1.1.5,1.3,1,1.9.9Z"/>
      <path class="st0" d="M191.6,132.4c.9.4,1.7,0,2-.8,0-.2-.5-.9-.7-.9-.7.2-1.4.5-2.1.8.3.3.4.8.8.9Z"/>
      <path class="st0" d="M185.3,227.3c.3.7.4,1.7.8,1.9.5.2,1.3-.4,2-.6-.3-.7-.5-1.5-1-1.9-.7-.6-1.5-.2-1.8.7h0Z"/>
      <path class="st0" d="M192.5,171.5c.5,0,1-.8,1.5-1.2-.3-.6-.6-1.6-1-1.7-.5-.2-1.6.2-1.9.7-.6,1.2.1,2.1,1.4,2.2Z"/>
      <path class="st0" d="M191.7,184.2c.6.2,1.7-.2,1.9-.7.6-1.3-.2-2.2-1.5-2.3-.5,0-1,.8-1.6,1.3.4.6.6,1.6,1.1,1.7h.1Z"/>
      <path class="st0" d="M191.7,236.1c.5.2,1.7-.2,1.9-.7.6-1.3,0-2.2-1.4-2.3-.5,0-1.1.8-1.6,1.3.4.6.6,1.6,1.1,1.8h0Z"/>
      <path class="st0" d="M211,136.9c-.8,1.1-.3,2.1.9,2.3.5.1,1.2-.6,1.8-.9-.3-.6-.4-1.6-.8-1.8-.4-.2-1.5,0-1.8.4h0Z"/>
      <path class="st0" d="M211.6,200.8c-.5.1-1.2,1-1.2,1.5,0,1.2.7,2.1,2.1,1.8.5,0,.9-.9,1.3-1.4-.2-1.2-.8-2.2-2.2-1.9Z"/>
      <path class="st0" d="M186.9,151.1c-.1-.6-.5-1.2-.7-1.9-.3.2-.8.5-.8.7.1.6.5,1.2.7,1.9.3-.2.9-.5.8-.7Z"/>
      <path class="st0" d="M160,149.4c-.5.4-.7,1.2-1.1,1.8.7.3,1.5.9,2,.7.5-.2.6-1.2,1-1.8-.4-1-1.1-1.3-1.9-.7Z"/>
      <path class="st0" d="M25.6,245.5c-.5.4-1.4.8-1.5,1.3,0,.6.4,1.7.8,1.8,1.3.4,2.2-.4,2.1-1.7,0-.5-.9-.9-1.5-1.4h.1Z"/>
      <path class="st0" d="M24.7,236c1.3.6,2.3-.1,2.3-1.5s-.9-1.1-1.3-1.6c-.6.4-1.6.6-1.7,1.1,0,.6.3,1.7.7,2Z"/>
      <path class="st0" d="M25,119.8c.6-.2,1.2-.5,1.8-.8-.2-.3-.5-.6-.7-.8-.6.3-1.2.6-1.8.8.2.3.6.8.7.8Z"/>
      <path class="st0" d="M24.8,143.3c-.5.2-.9,1.3-.9,1.9,0,1,1.1,1.3,1.9.7.5-.5.7-1.3,1.1-2-.7-.2-1.6-.8-2.1-.6Z"/>
      <path class="st0" d="M25.7,133.3c.4-.7.7-1.3,1.1-2-.7-.3-1.6-.9-2.1-.7-.5.1-1,1.3-.9,1.9,0,1,1,1.2,1.9.8Z"/>
      <path class="st0" d="M24.2,170c0,.5.7,1.1,1.1,1.6.7-.3,1.6-.5,1.9-1,.2-.5-.2-1.6-.7-1.9-1.2-.7-2.2,0-2.3,1.3Z"/>
      <path class="st0" d="M24.5,156.5c-.8,1.1-.3,2.1.9,2.5.5.1,1.2-.6,1.8-.9-.2-.7-.3-1.6-.8-1.9-.4-.3-1.6,0-1.9.4h0Z"/>
      <path class="st0" d="M25,220.2c-.5.2-.8,1.2-1.1,1.8.3,1.3,1.2,2.1,2.5,1.7.5-.2,1.2-1.3,1.1-1.8,0-1.3-1.2-2.1-2.5-1.7Z"/>
      <path class="st0" d="M64.4,172.4c1.3-.2,2.2-.9,1.7-2.4-.4-1.3-1.4-2-2.6-1.9-1.3.2-2.2,1.1-1.8,2.5.4,1.2,1.4,1.9,2.7,1.8Z"/>
      <path class="st0" d="M31.2,137.3c.1.7.5,1.3.7,1.9.3-.2.9-.5.8-.7,0-.7-.5-1.3-.7-1.9-.3.2-.9.5-.8.7Z"/>
      <path class="st0" d="M31.3,204.1c.5,0,1-.8,1.5-1.2-.2-.7-.5-1.3-.7-2-.6.3-1.5.5-1.8,1-.8,1.1-.2,2.1,1.1,2.2h-.1Z"/>
      <path class="st0" d="M31.9,164.3c.2,0,.5-.3.7-.5-.2-.2-.4-.5-.6-.7-.2.2-.5.4-.7.6.2.2.4.7.6.7h0Z"/>
      <path class="st0" d="M32.8,125.8c-.3-.6-.6-1.3-.9-1.9-.3.3-.9.6-.8.8.2.7.5,1.3.8,1.9.3-.3.6-.5.9-.8Z"/>
      <path class="st0" d="M31.8,151.8c1-.1,1.3-.8,1-1.8-.2-.2-.5-.4-.7-.7-.3.6-.7,1.1-1,1.8,0,.1.5.8.8.7h-.1Z"/>
      <path class="st0" d="M25.1,184.4c.5.1,1.2-.6,1.8-.9-.3-.6-.5-1.5-1.1-1.8-.4-.2-1.5,0-1.8.3-.7,1.1-.2,2.1,1,2.3h.1Z"/>
      <path class="st0" d="M31.1,189c.2.7.5,1.3.8,1.9.3-.3.6-.5.8-.8-.3-.6-.6-1.2-.9-1.9-.3.3-.9.6-.8.7h.1Z"/>
      <path class="st0" d="M32,175.8c-.2,0-.9.5-.8.6.1.6.5,1.3.7,1.9.3-.2.6-.4.9-.7.4-.9.1-1.6-.8-1.8Z"/>
      <path class="st0" d="M30.8,229.2c.7.1,1.4-.4,2.1-.7-.3-.7-.5-1.5-.8-2.2-.7.3-1.6.5-2.1,1-.6.7-.2,1.7.8,1.9Z"/>
      <path class="st0" d="M31.1,214.3c.2.7.5,1.3.8,1.9.3-.2.6-.5.9-.7-.3-.6-.6-1.3-.9-1.9-.3.2-.8.6-.8.7Z"/>
      <path class="st0" d="M24.1,196c0,.2.5.9.7.9.7-.2,1.4-.5,2-.8-.2-.3-.4-.8-.8-.9-.9-.4-1.7-.1-2,.8h.1Z"/>
      <path class="st0" d="M13.2,194.2c-.7-.6-1.6-.2-1.8.7,0,.6.3,1.7.8,1.9s1.3-.4,2-.7c-.3-.7-.5-1.5-1-1.9Z"/>
      <path class="st0" d="M11.2,209.6c0,1,1.1,1.4,1.9.8.5-.4.7-1.3,1-2-.7-.3-1.4-.6-2.1-.9-.3.7-.9,1.4-.8,2.1Z"/>
      <path class="st0" d="M14,182.5c-.4-.5-1.2-.7-1.9-1.1-.3.7-.5,1.4-.8,2.1.7.3,1.3.9,1.9.9,1-.1,1.3-1.1.7-1.8h0Z"/>
      <path class="st0" d="M12.1,171.8c.5.2,1.7-.2,1.8-.6.4-1.2-.3-2.1-1.5-2.3-.4,0-.9.8-1.3,1.2.3.6.5,1.6,1,1.7Z"/>
      <path class="st0" d="M19,178.3c.4,0,.8-.9,1.3-1.4-.4-.5-.7-1.4-1.2-1.5-1.1-.2-2.4.2-1.7,1.8.2.5,1.1,1.1,1.7,1.1h-.1Z"/>
      <path class="st0" d="M13.3,130.7c-.6-.1-1.7.3-1.9.8-.2.5.4,1.3.6,2,.7-.3,1.5-.5,1.9-1,.6-.7.3-1.6-.7-1.8h0Z"/>
      <path class="st0" d="M18.7,152.2c.5,0,1.1-.6,1.7-1-.3-.6-.4-1.7-.8-1.8-.5-.2-1.5.2-1.9.7-.9,1.2,0,2,1.1,2.1h0Z"/>
      <path class="st0" d="M18.7,216.4c.5,0,.9-.9,1.4-1.4-.4-.6-.7-1.5-1.2-1.7-.6-.1-1.7.4-1.9.9-.5,1.4.4,2.2,1.7,2.2Z"/>
      <path class="st0" d="M13,235.2c.4-.9.1-1.6-.8-2-.3.2-1,.5-.9.7.2.7.5,1.4.8,2.1.3-.2.8-.4.9-.7h0Z"/>
      <path class="st0" d="M12,119.9c1.1.3,2.2-.2,2-1.6,0-.5-.9-.9-1.4-1.3-.5.4-1.3.8-1.4,1.2,0,.6.4,1.6.8,1.7Z"/>
      <path class="st0" d="M12.1,248.8c.5.2,1.7-.2,1.8-.6.4-1.2-.3-2.2-1.5-2.4-.4,0-.9.8-1.3,1.2.3.6.5,1.6,1,1.7h0Z"/>
      <path class="st0" d="M12.2,261.2c.4.2,1.3-.4,2-.7-.3-.7-.5-1.5-1-2-.8-.7-1.7-.3-1.8.7,0,.6.3,1.7.8,1.9h0Z"/>
      <path class="st0" d="M13,146.1c.5-.2,1-1.1,1-1.7s-.9-.8-1.4-1.3c-.5.4-1.4.8-1.4,1.2,0,1.1.2,2.4,1.8,1.7h0Z"/>
      <path class="st0" d="M11.7,223.5c1.3.3,2.1-.6,2.6-1.8,0-1.5-.9-2.1-2.2-2.1s-1.7.6-1.9,1.1c-.4,1.3.3,2.4,1.5,2.7h0Z"/>
      <path class="st0" d="M12,158.9c1-.2,1.3-.9,1.1-1.7-.4-.4-.7-1-.9-1-1,.2-1.4.9-1,1.9,0,.3.6.9.8.8Z"/>
      <path class="st0" d="M19.5,188c-.2,0-.5.4-.7.6.2.2.4.7.6.7s.5-.4.7-.6c-.2-.2-.4-.7-.6-.7Z"/>
      <path class="st0" d="M24.7,261.4c.6.2,1.8-.2,1.9-.6.4-1.2-.4-2.1-1.5-2.2-.4,0-.9.8-1.4,1.2.3.6.6,1.5,1,1.6Z"/>
      <path class="st0" d="M18.2,139.6c.6.1,1.6-.2,1.9-.7.5-1.1,0-2.2-1.3-2.1-.5,0-1,.8-1.6,1.3.3.5.6,1.5,1,1.5Z"/>
      <path class="st0" d="M18.9,202.3c.2,1,.7,1.1,1.2.1,0-.2,0-.6-.2-.9,0-.1-.5,0-.7-.1,0,.3-.4.6-.3.9Z"/>
      <path class="st0" d="M25.2,210.5c.5,0,1-.8,1.6-1.3-.3-.5-.6-1.4-1-1.5-.6-.1-1.6.2-1.8.7-.5,1.1,0,2.1,1.3,2.1h0Z"/>
      <path class="st0" d="M18.7,162.4c0,.6.5,1.2.7,1.8.3-.2.6-.4.9-.6-.3-.6-.5-1.2-.8-1.8-.3.2-.9.5-.8.6Z"/>
      <path class="st0" d="M20.3,125.8c-.3-.6-.6-1.2-.9-1.8-.3.2-.8.6-.8.7.2.6.5,1.2.8,1.9.3-.2.6-.5.8-.7h0Z"/>
      <path class="st0" d="M18,241.7c.9.4,1.6,0,2-.8-.2-.3-.5-1-.7-.9-.7.2-1.4.5-2,.8.2.3.4.8.7.9Z"/>
      <path class="st0" d="M20.2,228.3c.2-.5-.4-1.3-.6-2-.6.3-1.5.5-1.9,1-.6.8-.3,1.7.7,1.8.6,0,1.7-.4,1.8-.8Z"/>
      <path class="st0" d="M19.4,255.3c.3-.7.9-1.4.8-2,0-.4-1.2-.9-1.8-.9-.9,0-1.2.9-.9,1.7.6.4,1.3.8,1.9,1.1h0Z"/>
      <path class="st0" d="M49.6,156.6c-.9,1.1-.3,2.2,1,2.5.5.1,1.2-.6,1.8-1-.3-.7-.4-1.7-.9-2-.4-.3-1.6,0-2,.4h.1Z"/>
      <path class="st0" d="M51.5,258.3c-.4-.3-1.6,0-2,.5-.9,1.2-.3,2.2,1,2.5.5,0,1.2-.6,1.9-1-.3-.7-.4-1.7-.9-2Z"/>
      <path class="st0" d="M49.3,169.8c.3.6.5,1.5,1,1.7.5.2,1.6-.2,1.9-.6.6-1.2,0-2.2-1.3-2.3-.5,0-1.1.8-1.6,1.2Z"/>
      <path class="st0" d="M51,223.5c.5,0,.9-1,1.4-1.5-.4-.5-.8-1.5-1.3-1.5s-1.8.4-1.9.9c-.4,1.4.4,2.3,1.8,2.2h0Z"/>
      <path class="st0" d="M50.7,210.5c.6-.3,1.6-.4,1.7-.8.2-.5-.2-1.5-.7-1.8-1-.6-2.1-.3-2.3,1,0,.5.8,1,1.2,1.6h0Z"/>
      <path class="st0" d="M52.6,234.9c-.3-.7-.3-1.8-.8-2-.5-.2-1.4.4-2.1.6.3.7.5,1.6,1,2.1s1.5.3,1.9-.7Z"/>
      <path class="st0" d="M59,227.3c-.7-.4-1.3-.8-2-1.1-.3.7-1,1.5-.8,2,.2.5,1.2,1,1.9.9,1,0,1.3-.9.9-1.8Z"/>
      <path class="st0" d="M56.4,240.8c0,.2.5.9.6.9.7-.2,1.3-.5,2-.8-.2-.3-.4-.8-.7-.9-.9-.5-1.6-.1-1.9.8Z"/>
      <path class="st0" d="M58.2,175.4c-.7.3-1.8.4-2,.8-.2.5.4,1.4.6,2.1.7-.3,1.6-.5,2-1,.6-.7.3-1.5-.7-1.9h0Z"/>
      <path class="st0" d="M58.1,188c-.6,0-1.7.4-1.9.9-.2.5.4,1.4.6,2.1.7-.4,1.5-.6,2-1.1.6-.8.3-1.7-.7-1.9Z"/>
      <path class="st0" d="M57.7,126.9c.5,0,1.2-.7,1.7-1.1-.3-.7-.5-1.6-1-1.9-.4-.2-1.6.2-1.9.6-.7,1.2,0,2.2,1.1,2.4h0Z"/>
      <path class="st0" d="M58.1,216.5c1,0,1.2-.9.8-1.8-.7-.4-1.3-.8-2-1.2-.3.7-.9,1.5-.7,2.1.2.5,1.2,1,1.9,1h0Z"/>
      <path class="st0" d="M57.6,255.3c.6,0,1-1,1.5-1.6-.4-.5-.8-1.4-1.3-1.5-.6,0-1.8.4-1.9.9-.3,1.3.2,2.4,1.8,2.2h0Z"/>
      <path class="st0" d="M57.9,165.6c.6-.4.7-1.3,1.1-2-.7-.3-1.6-.9-2.1-.7-.5.1-.9,1.3-.8,1.9,0,1,1.1,1.4,1.9.8h0Z"/>
      <path class="st0" d="M58.5,137.5c-.2-.3-.6-.6-.9-.6-.9-.1-1.3.3-1.2,1.3.6.4,1.2,1.1,1.7,1.1.9-.1,1.1-.9.4-1.7h0Z"/>
      <path class="st0" d="M58,200.6c-.6.3-1.5.6-1.7,1.1-.1.6.2,1.7.7,1.9,1.2.6,2.2-.2,2.2-1.4s-.8-1-1.3-1.5h0Z"/>
      <path class="st0" d="M58,148.9c-.5,0-1,.8-1.5,1.2.3.6.6,1.5,1,1.6.5.1,1.6-.2,1.8-.7.6-1.2-.1-2.1-1.4-2.2h0Z"/>
      <path class="st0" d="M38.3,171.6c.5,0,1-.9,1.5-1.3-.5-.7-.8-1.6-1.4-1.8-.6-.1-1.7.4-1.9.9-.5,1.4.3,2.3,1.7,2.2h.1Z"/>
      <path class="st0" d="M44.8,190.8c.5,0,1-.8,1.5-1.3-.3-.6-.5-1.5-.9-1.6-.5-.1-1.6.3-1.8.7-.5,1-.1,2.1,1.2,2.2Z"/>
      <path class="st0" d="M45.2,177.7c.5-.9.2-1.5-.7-2-.3.2-1,.5-.9.6.2.7.5,1.3.7,2,.3-.2.8-.4.9-.7h0Z"/>
      <path class="st0" d="M37.1,208.6c.4.7.6,1.5,1.1,2,.8.7,1.5.4,1.9-.6-.3-.7-.4-1.7-.9-2-.5-.2-1.4.4-2.1.6Z"/>
      <path class="st0" d="M45,125.5c0-.4,0-1-.3-1-1-.2-1.2.3-.6,1.3,0,0,.6-.2.9-.3Z"/>
      <path class="st0" d="M45,138.2c0-.4,0-1-.3-1-1-.2-1.2.3-.6,1.2,0,0,.6-.1.9-.2Z"/>
      <path class="st0" d="M44.4,164.5c.3-.2.7-.4.7-.7s-.4-.5-.6-.8c-.3.2-.7.4-.7.7s.4.5.6.8Z"/>
      <path class="st0" d="M37.9,146.5c.5,0,1.2-.6,1.9-1-.3-.7-.3-1.6-.8-2-.4-.3-1.6,0-2,.4-.9,1.1-.3,2.2.9,2.5h0Z"/>
      <path class="st0" d="M38.7,248.9c.5-.2,1.1-1.2,1-1.8,0-1.2-1.1-2.1-2.4-1.6-.5.2-.8,1.2-1.1,1.8.3,1.3,1.2,2,2.4,1.6h0Z"/>
      <path class="st0" d="M44.4,213.5c-.3.7-.9,1.5-.7,2.1.2.5,1.2.7,1.9,1,1-.4,1.3-1.1.7-1.9-.4-.5-1.2-.8-1.9-1.2Z"/>
      <path class="st0" d="M38.8,130.7c-.6.2-1.2.5-1.8.8.6.3,1.2.6,1.9.8.2,0,.5-.5.7-.8-.2-.3-.6-.8-.7-.8h-.1Z"/>
      <path class="st0" d="M38.8,155.9c-.5-.2-1.7.3-1.9.7-.6,1.2,0,2.2,1.4,2.3.5,0,1-.8,1.5-1.3-.3-.6-.6-1.6-1.1-1.7h.1Z"/>
      <path class="st0" d="M38.5,120c.3-.3.9-.7.9-.9-.2-1-.9-1.4-1.9-1-.3.1-.8.6-.8.8.2,1,.9,1.3,1.8,1.1Z"/>
      <path class="st0" d="M38.6,181.1c-.6-.1-1.6.3-1.8.8-.5,1.3.4,2.1,1.6,2.1s1-.8,1.5-1.3c-.5-.7-.8-1.6-1.3-1.7h0Z"/>
      <path class="st0" d="M51.7,181.6c-.5-.2-1.5.2-1.9.7-.9,1.2-.1,2,1,2.1.5,0,1.1-.6,1.7-1-.3-.6-.4-1.7-.8-1.8Z"/>
      <path class="st0" d="M50.1,146.5c.5.2,1.7-.2,1.9-.7.7-1.3,0-2.2-1.3-2.3-.5,0-1.1.8-1.7,1.2.3.6.6,1.6,1.1,1.8Z"/>
      <path class="st0" d="M49.8,248.7c1.1.6,2.1.1,2.7-1-.3-.7-.4-1.6-.8-1.9-1.1-.7-2.2,0-2.6,1.1-.2.5.3,1.6.7,1.8Z"/>
      <path class="st0" d="M52.2,119c0-.2-.5-.9-.6-.8-.6.2-1.2.5-1.9.8.2.3.4.7.7.9.9.4,1.6.1,1.8-.8h0Z"/>
      <path class="st0" d="M50.8,133.4c.4.1,1.1-.5,1.7-.8-.3-.6-.4-1.5-.8-1.8-.5-.3-1.6,0-1.9.3-.8,1.1,0,2,1.1,2.3h-.1Z"/>
      <path class="st0" d="M49.8,195c-.6.7-.3,1.7.7,1.8.6,0,1.4-.4,2.1-.7-.3-.7-.5-1.4-.8-2.1-.7.3-1.6.5-2,1Z"/>
      <path class="st0" d="M186.8,138.5c-.1-.7-.5-1.3-.7-1.9-.3.2-.9.5-.8.7.1.7.5,1.3.7,1.9.3-.2.9-.5.8-.7Z"/>
      <path class="st0" d="M5.8,178.9c.6-.3,1.7-.5,1.9-1,.5-1.3-.3-2.3-1.5-2.5-.6,0-1.7.5-1.9,1-.4,1.2.3,2.1,1.5,2.5Z"/>
      <path class="st0" d="M5,126.7c1.3.6,2.3,0,2.4-1.4,0-.5-.8-1.1-1.3-1.6-.6.4-1.6.6-1.8,1.1s.2,1.7.7,2h0Z"/>
      <path class="st0" d="M7.2,151.3c-.3-.3-.5-.8-.8-.9-.9-.4-1.7,0-1.9.9,0,.2.4.7.8.9.9.4,1.6,0,2-.9h0Z"/>
      <path class="st0" d="M6.9,164.5c.5-.2.6-1.2.9-1.9-.4-.9-1.1-1.3-1.9-.7-.5.4-.7,1.2-1.1,1.9.7.3,1.5.9,2,.7h0Z"/>
      <path class="st0" d="M5.3,139.4c.6.2,1.7-.2,2-.7.6-1.3-.2-2.2-1.5-2.3-.5,0-1.1.8-1.6,1.3.4.6.6,1.6,1.1,1.7Z"/>
      <path class="st0" d="M153.7,158.9c.2,0,.6-.5.9-.7.3-.9,0-1.7-.9-1.9-.2,0-.7.4-.9.7-.4.9,0,1.7.9,1.9Z"/>
      <path class="st0" d="M140.5,260.2c0,0,.5.5.7.8.3-.6.6-1.1,1-1.8-.3-.2-.5-.5-.8-.7-.3.6-.7,1.1-.9,1.7Z"/>
      <path class="st0" d="M148.8,240.9c-.2-.3-.5-.9-.7-.9-.7.2-1.4.5-2,.8.2.3.6.9.7.9.7-.2,1.4-.5,2-.8Z"/>
      <path class="st0" d="M142.1,209.7c-.3-.6-.5-1.1-.8-1.7-.3.2-.8.5-.8.6.2.6.5,1.1.8,1.7.3-.2.5-.5.8-.7h0Z"/>
      <path class="st0" d="M148.1,136.4c-.5-.2-1.6.2-1.8.7-.6,1.2,0,2.1,1.3,2.2.5,0,1-.8,1.5-1.2-.3-.6-.5-1.5-1-1.7Z"/>
      <path class="st0" d="M141.8,196.1c-.2-1-.9-1.2-1.8-.9-.2.3-.7.7-.7.9.2.9.9,1.3,1.8.9.3-.1.7-.7.7-.9Z"/>
      <path class="st0" d="M146.9,254c.6,0,1.2-.4,1.8-.7-.2-.3-.5-.8-.7-.8-.6.1-1.2.5-1.8.7.2.3.5.8.7.8Z"/>
      <path class="st0" d="M154.4,196.2c-.2-.3-.5-1-.6-1-.7.2-1.3.5-2,.7.2.3.3.8.6.9.8.5,1.5.2,1.9-.7h.1Z"/>
      <path class="st0" d="M146.3,176.2c.2.3.5.9.6.8.6-.1,1.2-.4,1.8-.7-.2-.3-.5-.9-.6-.8-.6,0-1.2.4-1.9.7h.1Z"/>
      <path class="st0" d="M148.4,188.5c-1.1-.7-2.1,0-2.3,1.2,0,.5.7,1.1,1.1,1.6.6-.3,1.6-.5,1.8-.9.2-.4-.2-1.6-.6-1.8h0Z"/>
      <path class="st0" d="M147.4,216.4c.5,0,1.1-.8,1.7-1.2-.3-.6-.6-1.6-1.1-1.8-.5-.2-1.7.2-1.9.7-.7,1.3,0,2.2,1.3,2.3Z"/>
      <path class="st0" d="M147.2,126.9c.5.1,1.2-.6,1.9-1-.3-.7-.4-1.6-.9-2-.4-.3-1.6,0-1.9.4-.9,1.1-.3,2.2.9,2.5h0Z"/>
      <path class="st0" d="M148.8,151.3c-.2-.3-.5-.5-.7-.8-.6.3-1.2.5-1.8.8.2.3.5.8.7.8.6-.2,1.2-.5,1.8-.8Z"/>
      <path class="st0" d="M147.8,200.7c-.6.3-1.5.6-1.7,1-.2.5.2,1.6.7,1.9,1.2.6,2.1-.1,2.2-1.4,0-.5-.8-1-1.2-1.5Z"/>
      <path class="st0" d="M147,164.5c.6-.2,1.2-.5,1.8-.8-.2-.3-.5-.5-.7-.8-.6.3-1.2.6-1.8.8.2.3.5.8.7.8Z"/>
      <path class="st0" d="M141.3,220.6c-.3.2-.8.5-.8.6.1.6.5,1.2.7,1.8.3-.2.6-.4.8-.6-.2-.6-.5-1.2-.7-1.8Z"/>
      <path class="st0" d="M133.6,240.7c.2.3.5.8.6.8.6,0,1.2-.4,1.8-.7-.2-.3-.5-.8-.6-.8-.6.1-1.2.4-1.8.7Z"/>
      <path class="st0" d="M135.2,149.5c-.4-.3-1.6,0-1.8.3-.7,1.1-.1,2.1,1.1,2.4.5.1,1.2-.6,1.8-.9-.4-.6-.6-1.5-1.1-1.8Z"/>
      <path class="st0" d="M134,213.6c-.3.7-1,1.5-.8,2.1.2.5,1.3,1,1.9.9,1,0,1.3-.9.9-1.9-.7-.4-1.4-.8-2-1.2h0Z"/>
      <path class="st0" d="M134.4,255.2c.5,0,1.1-.7,1.7-1.2-.3-.6-.5-1.5-.9-1.7-.5-.2-1.6.2-1.9.6-.6,1.1-.2,2.1,1.1,2.2h0Z"/>
      <path class="st0" d="M134.3,164.5c.6,0,1.2-.4,1.9-.7-.2-.3-.5-.8-.6-.8-.6.1-1.2.4-1.9.7.2.3.5.9.6.8Z"/>
      <path class="st0" d="M134.2,175.5c-.5.2-1,1.3-.9,1.9.2,1,1.1,1.3,1.9.6.5-.5.8-1.3,1.1-2-.7-.2-1.6-.8-2.1-.6h0Z"/>
      <path class="st0" d="M133.3,189.2c-.1.6.3,1.7.8,2,1.3.6,2.2-.2,2.3-1.5,0-.5-.9-1-1.3-1.6-.6.4-1.6.6-1.7,1.1h-.1Z"/>
      <path class="st0" d="M135.1,226.5c-.7-.6-1.7-.3-1.8.7,0,.6.4,1.7.8,1.8.5.2,1.3-.4,2-.6-.3-.6-.5-1.5-1.1-1.9h.1Z"/>
      <path class="st0" d="M140.5,157.9c0,.2.5.5.7.8.3-.6.6-1.2.9-1.8-.3-.2-.5-.5-.8-.7-.3.6-.7,1.2-.9,1.8h0Z"/>
      <path class="st0" d="M141.9,119c0-.2-.4-.5-.6-.7-.2.2-.7.4-.7.6s.4.5.6.7c.2-.2.7-.4.7-.6Z"/>
      <path class="st0" d="M142.1,145.3c-.2-.6-.5-1.2-.8-1.8-.3.2-.8.5-.8.7.2.6.5,1.2.8,1.8.3-.2.8-.5.8-.6h0Z"/>
      <path class="st0" d="M140.5,233.8c.2.6.5,1.2.8,1.8.3-.2.8-.5.8-.7-.2-.6-.5-1.2-.8-1.8-.3.2-.8.5-.8.7Z"/>
      <path class="st0" d="M142.1,247.6c-.3-.6-.6-1.2-.8-1.8-.3.2-.8.6-.8.7.2.6.5,1.2.8,1.8.3-.2.5-.5.8-.7Z"/>
      <path class="st0" d="M141.4,181.5c-.3.6-.7,1.1-.9,1.7,0,.1.5.5.7.8.3-.6.6-1.1,1-1.7-.3-.3-.5-.5-.8-.8Z"/>
      <path class="st0" d="M141.5,168.9c-.6.2-1.5.2-1.9.7-.8,1-.5,2,.8,2.3.5,0,1.1-.6,1.7-1-.2-.7-.4-1.3-.7-2h0Z"/>
      <path class="st0" d="M63.4,159.1c.5,0,1.1-.8,1.6-1.2-.3-.7-.5-1.7-1-1.9-.5-.2-1.7.3-1.9.8-.7,1.3,0,2.2,1.3,2.4h0Z"/>
      <path class="st0" d="M140.6,133.5c.4,0,1.1-.6,1.6-.9-.2-.6-.3-1.5-.8-1.8-.4-.2-1.6,0-1.8.4-.8,1.1,0,2,1,2.3Z"/>
      <path class="st0" d="M148.4,226.3c-1.2-.8-2.2-.2-2.5,1-.1.5.6,1.2,1,1.8.7-.3,1.7-.4,2-.9.3-.4,0-1.6-.5-1.9Z"/>
      <path class="st0" d="M178.8,261.4c1.1.3,2.3,0,2.1-1.5,0-.5-1-.9-1.5-1.4-.5.4-1.4.7-1.4,1.1,0,.6.4,1.6.9,1.8h-.1Z"/>
      <path class="st0" d="M180.4,143.5c-.5-.2-1.6.2-1.9.6-.7,1.1,0,2.1,1.2,2.3.5,0,1.1-.7,1.6-1.1-.3-.6-.5-1.6-.9-1.8Z"/>
      <path class="st0" d="M180.4,156c-.5-.2-1.7.2-2,.7-.7,1.2,0,2.2,1.2,2.4.5,0,1.1-.8,1.7-1.2-.3-.7-.5-1.7-1-1.9h.1Z"/>
      <path class="st0" d="M172.8,178.3c.4.1,1.1-.6,1.6-.9-.3-.6-.3-1.6-.8-1.8-.4-.3-1.6,0-1.9.4-.8,1.1,0,2,1.1,2.4h0Z"/>
      <path class="st0" d="M179.8,232.9c-.5.4-1.4.8-1.5,1.2,0,.6.4,1.7.9,1.8,1.3.4,2.2-.4,2.1-1.7,0-.5-.9-.9-1.5-1.3Z"/>
      <path class="st0" d="M179.9,245.5c-.6.4-1.6.6-1.8,1.1-.2.5.2,1.7.7,1.9,1.2.6,2.3,0,2.4-1.4,0-.5-.8-1.1-1.3-1.6Z"/>
      <path class="st0" d="M179,220.3c-.5.2-1,1.3-.9,1.9.1,1,1.1,1.3,1.9.7.5-.4.8-1.3,1.1-1.9-.7-.2-1.5-.8-2.1-.6h0Z"/>
      <path class="st0" d="M172.6,149.4c-.5.4-.7,1.3-1,1.9.7.3,1.4.6,2,.9.3-.7.8-1.4.8-2-.1-1-1-1.3-1.7-.8h-.1Z"/>
      <path class="st0" d="M179.1,119.8c.6-.2,1.2-.5,1.8-.8-.2-.3-.5-.8-.7-.8-.6.2-1.2.5-1.8.8.2.3.5.8.7.8Z"/>
      <path class="st0" d="M171.7,163.7c.2.3.3.7.6.8.8.4,1.5,0,1.7-.8,0-.2-.4-.8-.6-.8-.6.2-1.2.5-1.8.7h.1Z"/>
      <path class="st0" d="M171.1,228.2c0,.8,1.3,2.2,2.2,2.3,1.8.3,2.9-1,2.5-2.8-.3-1.2-1.2-1.9-2.9-1.9-.5.7-1.8,1.6-1.8,2.4Z"/>
      <path class="st0" d="M179.1,133.5c.5,0,1.2-.6,1.8-1,.5-.8.4-1.6-.6-1.8-.6-.1-1.6,0-1.9.4-.8,1-.5,2,.7,2.3h0Z"/>
      <path class="st0" d="M186,126.6c.3-.6.6-1.2,1-1.9-.3-.2-.5-.5-.8-.8-.3.6-.7,1.2-.9,1.8,0,.2.5.5.7.8h0Z"/>
      <path class="st0" d="M186.7,163.8c-.2-.3-.5-1-.6-1-.7.2-1.4.5-2,.8.2.3.4.8.7,1,.9.5,1.6.2,2-.8h-.1Z"/>
      <path class="st0" d="M179.2,207.6c-.5.2-1.1,1.2-1.1,1.8.2,1.3,1.2,2.1,2.5,1.7.5-.2.8-1.2,1.2-1.9-.4-1.3-1.3-1.9-2.6-1.6Z"/>
      <path class="st0" d="M181.2,170.7c.2-.5-.2-1.6-.7-1.9-1.2-.7-2.1,0-2.3,1.2,0,.5.7,1.1,1.1,1.6.6-.3,1.6-.5,1.8-1h.1Z"/>
      <path class="st0" d="M178.5,196c.2.3.5.9.7.8.6-.1,1.2-.5,1.9-.7-.2-.3-.5-.9-.7-.8-.6.1-1.2.5-1.9.7Z"/>
      <path class="st0" d="M179.4,184.2c.5.1,1.3-.6,1.9-1-.3-.7-.4-1.7-.9-2-.4-.3-1.6,0-2,.5-.9,1.1-.3,2.2.9,2.5h.1Z"/>
      <path class="st0" d="M154.6,183.3c-.1-.6-.5-1.2-.7-1.8-.3.2-.8.5-.8.6,0,.6.4,1.2.7,1.9.3-.2.9-.5.8-.7Z"/>
      <path class="st0" d="M154.6,170.6c-.2-.6-.5-1.2-.8-1.8-.3.2-.8.6-.8.7.2.6.5,1.2.8,1.8.3-.2.8-.6.8-.7Z"/>
      <path class="st0" d="M153.7,208c-.3,0-.9.5-.9.6.2.7.6,1.3.9,1.9.3-.2.6-.5.9-.7.3-.9,0-1.6-.9-1.8Z"/>
      <path class="st0" d="M153,144.1c.2.6.5,1.1.8,1.7.3-.2.5-.4.8-.7-.3-.5-.5-1.1-.8-1.6-.3.2-.8.5-.8.6Z"/>
      <path class="st0" d="M153,259.1c.1.6.4,1.3.7,1.9.3-.2.9-.5.8-.7,0-.6-.5-1.2-.7-1.9-.3.2-.8.5-.8.7Z"/>
      <path class="st0" d="M153.8,119.6c.1,0,.6-.4.7-.6,0-.2-.4-.5-.6-.7-.9.4-1,.9,0,1.3h-.1Z"/>
      <path class="st0" d="M153.7,220.1c-.5.2-.9,1.3-.8,2,0,1,1.1,1.4,1.8.8.5-.4.7-1.3,1.1-2-.7-.3-1.5-.9-2.1-.7h0Z"/>
      <path class="st0" d="M154.6,132.8c.3-.9,0-1.6-.9-1.8-.3,0-.9.5-.9.7.2.7.6,1.3.9,1.9.3-.3.6-.5.9-.8Z"/>
      <path class="st0" d="M153,246.4c.1.7.4,1.3.7,1.9.3-.2.9-.5.8-.7,0-.7-.4-1.3-.7-1.9-.3.2-.9.5-.8.7Z"/>
      <path class="st0" d="M153.8,233c-.3.2-1,.5-.9.7.2.7.5,1.4.8,2.1.3-.2.8-.4,1-.7.5-.9.2-1.6-.8-2h-.1Z"/>
      <path class="st0" d="M167,120.1c.5,0,1-.9,1.5-1.3-.5-.6-.8-1.4-1.4-1.6-.5-.1-1.7.3-1.9.8-.5,1.4.4,2.2,1.8,2.1Z"/>
      <path class="st0" d="M167.3,133.3c.5-.4.7-1.3,1.1-1.9-.7-.3-1.5-.8-2-.7-.5.2-.9,1.3-.8,1.9.1.9,1,1.3,1.8.7h-.1Z"/>
      <path class="st0" d="M166.4,146c.4,0,1.2-.6,1.8-1,.5-.8.4-1.6-.6-1.8-.6-.1-1.5,0-1.9.4-.8,1-.5,2,.7,2.4Z"/>
      <path class="st0" d="M172.7,138.4c0,.1.5.5.7.8.3-.6.6-1.1.9-1.7-.3-.3-.5-.5-.8-.8-.3.6-.7,1.1-.9,1.8h.1Z"/>
      <path class="st0" d="M165.4,158.1c.2.5,1.2,1.1,1.8,1.1,1.3-.1,2.1-1.1,1.6-2.4-.2-.5-1.2-.8-1.8-1.2-1.3.3-2,1.3-1.6,2.5Z"/>
      <path class="st0" d="M174.1,126.2c.5-1.3,0-2.3-1.4-2.4-.5,0-1.1.8-1.6,1.3.4.6.6,1.4,1.1,1.8.8.6,1.6.2,2-.7h-.1Z"/>
      <path class="st0" d="M172.9,203.9c.5,0,.9-1,1.4-1.5-.4-.6-.8-1.6-1.2-1.6-.6-.1-1.7.4-1.9.9-.5,1.4.4,2.3,1.8,2.2h-.1Z"/>
      <path class="st0" d="M159.1,188.6c.3.7.5,1.6,1,2,.7.7,1.5.3,1.9-.7-.3-.7-.3-1.8-.8-2-.5-.2-1.4.4-2.1.6h0Z"/>
      <path class="st0" d="M160.8,229.2c.5-.1,1.1-1.2,1-1.8-.2-1.3-1.1-2.2-2.4-1.7-.5.2-.8,1.2-1.2,1.9.4,1.3,1.3,2,2.6,1.7h0Z"/>
      <path class="st0" d="M172.9,191.3c.5,0,.9-1,1.4-1.6-.4-.6-.8-1.5-1.3-1.6-.6,0-1.7.4-1.9.9-.5,1.4.4,2.3,1.8,2.2h0Z"/>
      <path class="st0" d="M160,136.8c-.5.4-.7,1.3-1.1,1.9.7.3,1.5.9,2,.7.5-.2.6-1.2.9-1.9-.3-1-1.1-1.4-1.8-.7Z"/>
      <path class="st0" d="M159.5,126.8c.5.2,1.7-.2,2-.7.6-1.3-.1-2.3-1.4-2.4-.5,0-1.1.8-1.6,1.3.4.6.6,1.6,1.1,1.8h0Z"/>
      <path class="st0" d="M161.1,215.9c.2-.7.8-1.5.6-2-.2-.5-1.2-.7-1.8-1-.9.4-1.2,1.1-.7,1.8.4.5,1.2.8,1.8,1.1h0Z"/>
      <path class="st0" d="M159.1,177.3c.4.5,1.3.7,1.9,1,.3-.7.9-1.5.7-1.9-.2-.5-1.2-.6-1.9-.9-1,.4-1.3,1.1-.7,1.8Z"/>
      <path class="st0" d="M159.6,164.5c.6,0,1.2-.4,1.9-.6-.2-.3-.5-.9-.6-.9-.6.1-1.2.4-1.9.7.2.3.5.9.6.8Z"/>
      <path class="st0" d="M159.9,203.9c.5.1,1.2-.6,1.9-1-.3-.7-.4-1.7-.9-2-.4-.3-1.6,0-2,.4-.9,1.1-.3,2.2,1,2.5h0Z"/>
      <path class="st0" d="M90.8,146.7c.5-.2,1.1-1.2,1.1-1.8-.2-1.3-1.2-2-2.4-1.7-.5.2-.7,1.2-1,1.7.2,1.5,1.2,2.2,2.4,1.8h-.1Z"/>
      <path class="st0" d="M90.3,133.3c.3-.6.7-1.3,1-1.9-.7-.3-1.5-.9-2-.7-.5.2-.9,1.2-.8,1.8.1,1,.9,1.2,1.8.8Z"/>
      <path class="st0" d="M89.2,119.9c.7-.2,1.3-.5,1.9-.8-.2-.3-.4-.8-.7-.9-.9-.5-1.6-.1-1.9.8,0,.2.5.9.6.9h0Z"/>
      <path class="st0" d="M95.9,137.9c.3,1,.7,1.1,1.2,0s0-.6-.2-.9c0-.1-.5,0-.7-.1,0,.3-.3.6-.3.9Z"/>
      <path class="st0" d="M96.4,152.1c.5-.2.6-1.2.9-1.9-.4-.9-1.2-1.3-2-.7-.5.4-.7,1.3-1.1,2,.7.3,1.5.9,2.1.7h.1Z"/>
      <path class="st0" d="M94.9,191.3c1.4.5,2.2-.4,2.2-1.7s-.8-1-1.3-1.5c-.7.5-1.7.9-1.8,1.4,0,.6.4,1.7.9,1.9h0Z"/>
      <path class="st0" d="M97.3,125.8c-.1-.7-.4-1.3-.7-1.9-.3.2-.9.5-.8.7.1.7.4,1.3.7,1.9.3-.2.9-.5.8-.7Z"/>
      <path class="st0" d="M82.9,126.7c.5.1,1.2-.6,1.8-1-.3-.7-.3-1.6-.8-1.9-.4-.3-1.6,0-1.9.4-.8,1.1-.3,2.1.9,2.4h0Z"/>
      <path class="st0" d="M83.2,139.3c.5,0,1-.8,1.5-1.2-.3-.6-.6-1.6-1.1-1.7-.5-.2-1.6.2-1.9.7-.6,1.3.2,2.1,1.4,2.2h0Z"/>
      <path class="st0" d="M89.7,223.1c.5,0,1-.8,1.5-1.3-.3-.6-.5-1.5-.9-1.6-.5-.1-1.6.3-1.8.7-.5,1,0,2.1,1.2,2.2Z"/>
      <path class="st0" d="M82.8,164.4c.4-.3.8-.6,1.2-.9-.3-.1-.6-.3-.8-.4-.3.2-.6.3-.7.5,0,.2.2.5.4.7h-.1Z"/>
      <path class="st0" d="M82.1,150.2c-.7.7-.3,1.7.7,1.8.6,0,1.4-.4,2.1-.7-.2-.7-.5-1.4-.7-2.1-.7.3-1.6.5-2,1h0Z"/>
      <path class="st0" d="M91,259.6c-.4-.5-1.3-.7-2-1.1-.3.7-.6,1.4-.8,2.1.7.3,1.4.9,2.1.9,1-.1,1.4-1.1.8-1.9h-.1Z"/>
      <path class="st0" d="M104.1,170.1c0-.5-.8-1.1-1.3-1.6-.6.4-1.6.6-1.7,1.1-.2.5.2,1.7.7,1.9,1.2.6,2.2,0,2.3-1.4Z"/>
      <path class="st0" d="M102.3,181c-.5.2-1.1,1.2-1.1,1.8.1,1.2,1.1,2,2.3,1.6.5-.2.7-1.1,1.1-1.7-.3-1.3-1.1-2-2.4-1.7h.1Z"/>
      <path class="st0" d="M102.1,119.8c.6-.2,1.2-.5,1.8-.8-.2-.3-.5-.6-.7-.8-.6.3-1.2.6-1.8.8.2.3.6.8.7.8Z"/>
      <path class="st0" d="M82.7,178.1c.6,0,1.1-.8,1.6-1.3-.3-.5-.6-1.4-1.1-1.5-.6,0-1.7.2-1.9.7-.6,1.2,0,2.2,1.4,2h0Z"/>
      <path class="st0" d="M109.6,163.8c0-.2-.4-.5-.6-.8-.2.2-.7.4-.7.6s.4.5.6.8c.2-.2.7-.4.7-.6Z"/>
      <path class="st0" d="M109.8,214.7c0-1-.9-1.3-1.8-.9-.4.7-.8,1.4-1.2,2,.7.3,1.5,1,2,.8.5-.2,1-1.3.9-1.9h.1Z"/>
      <path class="st0" d="M96.5,175.5c-.6-.2-1.8.2-2,.6-.4,1.3.4,2.2,1.6,2.4.4,0,.9-.8,1.4-1.3-.3-.6-.6-1.6-1.1-1.8h0Z"/>
      <path class="st0" d="M97,163.8c-.2-.9-.8-1.2-1.7-.9-.3,0-.5.5-.7.8.6.3,1.1.6,1.7.9.2-.3.7-.6.7-.8Z"/>
      <path class="st0" d="M102.5,159.1c.5,0,1.1-.7,1.7-1.2-.3-.7-.5-1.7-1-1.9-.5-.2-1.6.2-1.9.6-.7,1.2,0,2.2,1.2,2.4h0Z"/>
      <path class="st0" d="M102.4,146.4c.5.1,1.2-.6,1.8-.9-.2-.6-.3-1.6-.8-1.9-.4-.3-1.5,0-1.9.3-.9,1.1-.3,2.1.8,2.4h.1Z"/>
      <path class="st0" d="M101.8,196.9c.6.2,1.8-.2,1.9-.6.5-1.2-.4-2.1-1.6-2.2-.4,0-1,.8-1.4,1.2.4.6.6,1.5,1.1,1.6Z"/>
      <path class="st0" d="M102,132.2c.7-.1,1.3-.5,1.9-.7-.2-.3-.5-.9-.6-.8-.7.1-1.3.4-1.9.7.2.3.5.9.7.8h-.1Z"/>
      <path class="st0" d="M71.1,240c-.7.1-1.3.5-2,.7.2.3.5.9.7.9.7-.1,1.3-.5,1.9-.7-.2-.3-.5-.9-.7-.9h.1Z"/>
      <path class="st0" d="M71.1,226c-.5-.2-1.6.2-1.9.7-.7,1.2,0,2.1,1.2,2.2.5,0,1.1-.7,1.6-1.1-.3-.6-.5-1.6-1-1.8h.1Z"/>
      <path class="st0" d="M69.7,191c1.3.6,2.2,0,2.3-1.4,0-.5-.8-1-1.3-1.5-.6.3-1.6.6-1.7,1-.2.5.3,1.6.8,1.9h-.1Z"/>
      <path class="st0" d="M69.9,126.7c.5.2,1.7-.2,1.9-.7.6-1.2-.1-2.2-1.4-2.3-.5,0-1,.8-1.6,1.3.3.6.6,1.6,1.1,1.7Z"/>
      <path class="st0" d="M71.7,176.2c-.2-.3-.6-.8-.7-.8-.6.2-1.2.5-1.8.8.6.3,1.2.6,1.9.8.2,0,.5-.5.7-.8h-.1Z"/>
      <path class="st0" d="M108.2,176.4c.2.6.5,1.2.7,1.8.3-.2.8-.5.8-.6,0-.6-.5-1.2-.7-1.8-.3.2-.9.5-.9.6h0Z"/>
      <path class="st0" d="M70.6,166.2c.5,0,1.1-.9,1.6-1.3-.4-.6-.7-1.6-1.2-1.8-.6-.2-1.8.2-2,.7-.6,1.3.3,2.3,1.6,2.4Z"/>
      <path class="st0" d="M70.3,216.4c.5,0,1.1-.8,1.7-1.2-.3-.6-.6-1.6-1.1-1.8-.5-.2-1.7.2-1.9.7-.7,1.2,0,2.2,1.3,2.3Z"/>
      <path class="st0" d="M65.1,119c-.3-.6-.6-1.2-.8-1.8-.3.2-.9.5-.8.6.1.6.5,1.2.7,1.8.3-.2.6-.4.9-.6Z"/>
      <path class="st0" d="M65,132.7c0-.6-.5-1.2-.7-1.8-.3.2-.9.5-.9.6.2.6.5,1.3.8,1.9.3-.2.9-.5.8-.6h0Z"/>
      <path class="st0" d="M69.9,203.8c.5.2,1.7-.2,1.9-.7.6-1.2-.1-2.2-1.4-2.3-.5,0-1,.8-1.6,1.2.3.6.6,1.6,1.1,1.7h0Z"/>
      <path class="st0" d="M64.2,146.4c.5,0,1.1-1,1.1-1.5,0-1.2-.6-2-1.6-1.9-1.6.5-2,1.4-1.3,2.5.3.5,1.2,1,1.8,1h0Z"/>
      <path class="st0" d="M69.2,151.2c.2.3.6.8.7.8.6-.2,1.2-.5,1.8-.8-.2-.3-.6-.8-.7-.8-.6.2-1.2.5-1.8.8Z"/>
      <path class="st0" d="M69.3,253.3c.2.3.6.9.7.8.7-.2,1.3-.5,1.9-.8-.2-.3-.6-.9-.7-.8-.7.2-1.3.5-1.9.8Z"/>
      <path class="st0" d="M77.5,132.8c0-.6-.4-1.3-.6-1.9-.3.2-.9.5-.9.6.1.7.4,1.3.7,1.9.3-.2.9-.5.9-.6h-.1Z"/>
      <path class="st0" d="M77.5,170.7c0-.7-.5-1.3-.7-1.9-.3.2-.9.5-.8.7.1.7.5,1.3.7,2,.3-.2.9-.5.8-.7h0Z"/>
      <path class="st0" d="M77.5,118.9c-.2-.6-.5-1.2-.8-1.8-.3.2-.9.5-.8.6.2.6.5,1.2.7,1.8.3-.2.9-.5.8-.6h0Z"/>
      <path class="st0" d="M77.5,145.4c0-.6-.5-1.2-.7-1.9-.3.2-.9.5-.9.6.2.7.5,1.3.8,1.9.3-.2.9-.5.8-.7h0Z"/>
      <path class="st0" d="M76,183.4c.2.5,1.3,1,1.9.9,1-.1,1.3-1.1.7-1.9-.4-.6-1.3-.8-2-1.2-.3.7-.9,1.6-.7,2.2h0Z"/>
      <path class="st0" d="M76.6,158.9c1-.2,1.3-.9,1-1.7-.3-.4-.7-.9-.9-.9-1,.2-1.3.9-1,1.8.1.3.6.8.8.8h.1Z"/>
      <path class="st0" d="M71.1,136.3c-.5-.2-1.6.2-1.9.7-.7,1.2,0,2.1,1.2,2.3.5,0,1.1-.7,1.6-1.1-.3-.6-.5-1.6-1-1.8h.1Z"/>
      <path class="st0" d="M76.6,261c.9-.2,1.3-.8.9-1.9-.2-.2-.5-.4-.7-.7-.3.6-.7,1.2-.9,1.8,0,.2.5.8.7.7h0Z"/>
      <path class="st0" d="M76.6,248.5c.2,0,.6-.4.9-.7-.3-.7-.6-1.3-.8-2-.3.2-.8.4-.9.7-.4.9-.1,1.6.8,1.9h0Z"/>
      <path class="st0" d="M75.8,233.9c.2.7.5,1.3.8,2,.3-.2.9-.6.9-.7-.2-.7-.5-1.3-.8-2-.3.2-.9.6-.9.7Z"/>
      <path class="st0" d="M76.7,220.5c-.3.2-.9.6-.8.7.2.6.5,1.2.8,1.8.3-.2.6-.5.8-.7-.3-.6-.6-1.2-.8-1.8Z"/>
      <path class="st0" d="M75.6,207.7c-.9.4-1.4,1.1-.8,1.9.4.5,1.3.7,1.9,1.1.3-.7.9-1.5.8-2,0-.5-1.2-.6-1.9-.9h0Z"/>
      <path class="st0" d="M75.5,197.1c1.3.6,2.4.3,3.2-.9-.3-.7-.4-1.7-.9-2.1-1.3-.9-2.3-.2-3,1-.5.9-.2,1.6.8,2.1h-.1Z"/>
      <path class="st0" d="M127.6,171.7c.6,0,1.6-.4,1.8-.9.2-.5-.4-1.4-.6-2-.6.4-1.4.6-1.9,1.1-.6.7-.3,1.7.6,1.9h.1Z"/>
      <path class="st0" d="M128.8,181.6c-.5-.2-1.5.2-1.9.7-.9,1.2-.1,2,1.1,2.1.5,0,1.1-.6,1.7-1-.3-.6-.4-1.7-.8-1.8h-.1Z"/>
      <path class="st0" d="M127.5,119.7c.6-.1,1.2-.4,1.8-.6-.2-.3-.4-.9-.6-.9-.6.1-1.2.4-1.8.7.2.3.4.9.6.8Z"/>
      <path class="st0" d="M128.9,133.5c.3-.7.9-1.5.7-2-.2-.4-1.2-.9-1.9-.8-.9.1-1.3,1-.7,1.7.4.5,1.2.7,1.9,1h0Z"/>
      <path class="st0" d="M108.2,201.6c.1.7.4,1.3.7,1.9.3-.2.9-.5.8-.7,0-.7-.4-1.3-.7-1.9-.3.2-.9.5-.9.7h0Z"/>
      <path class="st0" d="M126.7,209.6c.5.5,1.4.7,2.1,1,.3-.7.9-1.6.7-2-.3-.5-1.3-.6-2-.9-1,.4-1.4,1.1-.7,1.9h-.1Z"/>
      <path class="st0" d="M127.3,197c.9.4,1.7,0,1.9-.9,0-.2-.5-.6-.7-.9-.7.3-1.3.6-1.9.9.3.3.4.7.8.9h-.1Z"/>
      <path class="st0" d="M134,139.6c.7.1,1.4-.4,2.1-.7-.3-.7-.5-1.6-1.1-2-.8-.7-1.6-.3-2,.7-.3.9,0,1.9.9,2h0Z"/>
      <path class="st0" d="M134.2,126.5c1.2.6,2.1,0,2.2-1.4,0-.5-.8-1-1.2-1.5-.6.3-1.5.6-1.7,1-.2.5.2,1.6.7,1.9Z"/>
      <path class="st0" d="M133.9,201.3c-.8,1-.3,2.1.8,2.4.5.1,1.2-.6,1.8-.9-.2-.7-.3-1.6-.8-1.9-.4-.3-1.5,0-1.8.4Z"/>
      <path class="st0" d="M126.5,259.9c.3.5.6,1.4,1,1.5.6,0,1.6-.2,1.9-.7.5-1.1,0-2.2-1.3-2.1-.5,0-1,.8-1.6,1.3Z"/>
      <path class="st0" d="M127.7,220.2c-.9.4-1.3,1.1-.7,1.8.4.5,1.2.7,1.9,1,.3-.7.9-1.5.7-2s-1.2-.6-1.8-.9h-.1Z"/>
      <path class="st0" d="M127,248.5c1.2.7,2.2,0,2.3-1.4,0-.5-.8-1.1-1.2-1.7-.6.3-1.6.6-1.8,1.1s.2,1.7.7,1.9h0Z"/>
      <path class="st0" d="M128.8,232.9c-.4-.2-1.3.4-2,.6.3.7.5,1.5,1,2,.8.7,1.5.3,1.8-.7-.3-.7-.4-1.7-.8-2h0Z"/>
      <path class="st0" d="M114.6,248.7c.6.2,1.7-.3,2-.7.6-1.3-.1-2.2-1.5-2.3-.5,0-1.1.8-1.6,1.3.4.6.6,1.6,1.1,1.7Z"/>
      <path class="st0" d="M115.3,233c-.5,0-1,.8-1.6,1.2.3.6.5,1.5,1,1.7.5.2,1.6-.2,1.8-.7.6-1.2,0-2.1-1.3-2.2h.1Z"/>
      <path class="st0" d="M115.4,223.5c.5,0,.9-1,1.4-1.5-.4-.5-.8-1.4-1.3-1.5-.6,0-1.8.4-1.9.9-.4,1.3.4,2.3,1.8,2.2h0Z"/>
      <path class="st0" d="M115.2,159.1c.5,0,1.1-.8,1.7-1.2-.3-.7-.5-1.7-1-1.9-.5-.2-1.7.2-2,.7-.7,1.2,0,2.2,1.3,2.4Z"/>
      <path class="st0" d="M115.2,171.6c.5,0,1.1-.8,1.7-1.2-.3-.7-.5-1.7-1-1.9-.5-.2-1.7.2-2,.7-.7,1.2,0,2.3,1.3,2.4Z"/>
      <path class="st0" d="M114.6,211c1.5.6,2.3-.4,2.3-1.8s-1-1-1.6-1.4c-.6.4-1.6.8-1.7,1.2,0,.6.5,1.7,1,2Z"/>
      <path class="st0" d="M108.9,151.7c.9-.1,1.2-.7.9-1.8-.2-.2-.5-.4-.7-.7-.3.6-.7,1.1-1,1.7,0,.1.5.7.7.7h.1Z"/>
      <path class="st0" d="M114.6,119.9c.9.4,1.6,0,2-.9-.3-.3-.5-.7-.8-.9-.9-.4-1.7,0-1.9.9,0,.2.4.7.8.9h0Z"/>
      <path class="st0" d="M108.9,139.2c.3-.6.6-1.2,1-1.8-.3-.2-.5-.5-.8-.7-.3.6-.7,1.1-.9,1.8,0,.2.5.5.7.8h0Z"/>
      <path class="st0" d="M109.1,188.3c-.3.2-.9.5-.8.7.1.6.5,1.3.7,1.9.3-.2.9-.5.8-.7-.1-.6-.5-1.2-.7-1.9Z"/>
      <path class="st0" d="M109.8,228.1c-.1-.6-.5-1.2-.7-1.8-.3.2-.8.5-.8.7.1.6.5,1.2.7,1.9.3-.2.9-.5.8-.7h0Z"/>
      <path class="st0" d="M108.2,254.3c.1,1,1.1,1.4,1.8.8.5-.4.7-1.3,1-1.9-.7-.3-1.3-.6-2-.8-.3.7-.8,1.4-.8,2h0Z"/>
      <path class="st0" d="M109.8,125.8c-.1-.7-.4-1.3-.7-1.9-.3.2-.9.5-.8.7.1.7.4,1.3.7,1.9.3-.2.9-.5.8-.7Z"/>
      <path class="st0" d="M109.1,240.1c-.2.2-.7.4-.7.6s.4.5.6.8c.2-.2.7-.4.7-.7s-.4-.5-.6-.8h0Z"/>
      <path class="st0" d="M116,130.6c-.6.2-1.2.5-1.8.8.2.3.5.8.7.7.6-.2,1.2-.5,1.7-.8-.2-.3-.5-.8-.7-.8h0Z"/>
      <path class="st0" d="M121.7,164.5c.6-.2,1.1-.5,1.7-.8-.2-.3-.5-.8-.6-.8-.6.2-1.2.5-1.7.8.2.3.5.8.6.8Z"/>
      <path class="st0" d="M123.7,215.5c.3-.4,0-1.6-.5-1.9-1.1-.9-2.1-.2-2.4,1-.1.5.6,1.2.9,1.8.7-.3,1.6-.4,1.9-.9h0Z"/>
      <path class="st0" d="M122.3,202.8c-.2-.6-.5-1.2-.8-1.8-.3.2-.8.5-.8.7.2.6.5,1.2.8,1.8.3-.2.8-.5.8-.7Z"/>
      <path class="st0" d="M126.8,143.9c.3.7.5,1.5,1,2,.7.6,1.4.3,1.8-.7-.3-.7-.3-1.7-.8-1.9-.5-.2-1.3.4-2,.6Z"/>
      <path class="st0" d="M122.8,187.9c-.7.3-1.8.4-2,.9-.2.6.4,1.4.6,2.1.7-.3,1.6-.5,2-1.1.6-.7.3-1.5-.7-2h.1Z"/>
      <path class="st0" d="M129.4,158.5c.5-1.4-.2-2.4-1.5-2.5-.5,0-1.1.8-1.7,1.3.4.7.6,1.5,1.2,1.9.8.6,1.7.3,2.1-.7h0Z"/>
      <path class="st0" d="M121.4,178.3c.6-.3,1.5-.5,1.9-1,.6-.7.3-1.6-.6-1.8-.6,0-1.6.3-1.8.8-.2.5.4,1.3.6,2h0Z"/>
      <path class="st0" d="M121.4,149.2c-.2.7-.8,1.5-.6,2s1.2.9,1.8.8c1-.1,1.3-1.1.7-1.8-.4-.5-1.2-.7-1.9-1Z"/>
      <path class="st0" d="M116.3,143.2c-.5-.2-1.4.4-2.1.6.3.7.5,1.5,1,2,.8.7,1.6.4,2-.6-.3-.7-.4-1.8-.9-2Z"/>
      <path class="st0" d="M120.8,138.6c.2.5,1.2,1,1.8.9,1-.1,1.3-1.1.7-1.8-.4-.5-1.2-.8-1.9-1.1-.2.7-.8,1.5-.6,2.1h0Z"/>
      <path class="st0" d="M122,229.1c1.3,0,2.1-.8,2-2.2-.5-1.2-1.5-1.8-2.6-1.1-.5.3-.9,1.4-.8,2,0,.5.9,1.4,1.4,1.4h0Z"/>
      <path class="st0" d="M121.4,126.5c.3-.6.6-1.2,1-1.8-.3-.2-.5-.5-.8-.7-.3.6-.7,1.1-.9,1.8,0,.2.5.5.7.8h0Z"/>
      <path class="st0" d="M39.7,260.7c-.2-.3-.5-.9-.6-.9-.6.2-1.2.5-1.8.7.2.3.5.9.6.8.6,0,1.2-.5,1.8-.7h0Z"/>
      <path class="st0" d="M38,236c.5.1,1.2-.6,1.8-.9-.2-.7-.3-1.6-.8-1.9-.4-.3-1.6,0-1.9.4-.9,1.1-.3,2.1.9,2.4Z"/>
      <path class="st0" d="M39.5,196c0-.2-.5-.6-.7-.9-.9-.3-1.7,0-1.9.9,0,.2.4.7.8.9.9.4,1.7,0,1.9-.9h-.1Z"/>
      <path class="st0" d="M38.2,223.5c.5,0,1.1-.8,1.6-1.3-.4-.6-.6-1.6-1.1-1.7-.6-.2-1.7.2-2,.7-.6,1.3.1,2.2,1.5,2.3Z"/>
      <path class="st0" d="M5.9,226.4c-.5.4-.7,1.3-1.1,1.9.7.3,1.5.8,2,.7.5-.2.6-1.2.9-1.9-.4-.9-1.1-1.3-1.9-.7h0Z"/>
      <path class="st0" d="M44.3,255.2c.3-.2.9-.5.9-.6,0-.6-.4-1.3-.6-1.9-.3.2-.9.5-.9.6.1.7.4,1.3.7,1.9h-.1Z"/>
      <path class="st0" d="M45.2,228.1c0-.6-.5-1.2-.7-1.9-.3.2-.9.5-.8.6.2.6.5,1.3.7,1.9.3-.2.9-.5.8-.7h0Z"/>
      <path class="st0" d="M43.8,240.8c0,.2.4.5.6.8.3-.2.5-.4.8-.7-.2-.3-.4-.5-.6-.8-.3.2-.7.4-.7.7h-.1Z"/>
      <path class="st0" d="M45.2,202.9c0-.7-.5-1.3-.7-2-.3.2-.9.5-.8.7.1.7.5,1.3.7,2,.3-.2.9-.5.9-.7h-.1Z"/>
      <path class="st0" d="M7.5,215.1c-.3-.6-.5-1.6-.9-1.8-.5-.2-1.6.2-1.8.7-.7,1.2,0,2.1,1.2,2.2.5,0,1-.7,1.5-1.1Z"/>
      <path class="st0" d="M31.2,254.8c.1.3.5.5.8.8.3-.6.6-1.2.9-1.8-.3-.3-.6-.8-.8-.8-.9.2-1.3.9-.9,1.8Z"/>
      <path class="st0" d="M32.7,240.8c-.2-.3-.4-.5-.7-.8-.3.2-.7.4-.7.7s.4.5.6.8c.3-.2.5-.5.8-.7Z"/>
      <path class="st0" d="M83,226.4c-.4.6-.8,1.3-1.2,1.9.7.3,1.5.9,2,.7.5-.1,1-1.2.9-1.8,0-1-.9-1.2-1.8-.9h0Z"/>
      <path class="st0" d="M84.4,240.9c-.2-.3-.6-.9-.7-.9-.7.2-1.4.5-2,.8.2.3.6.9.7.9.7-.2,1.4-.5,2-.8Z"/>
      <path class="st0" d="M82.6,216.6c.7-.3,1.7-.5,1.9-1s-.3-1.7-.8-1.9c-1.2-.7-2.2,0-2.4,1.3,0,.5.8,1.1,1.2,1.6h.1Z"/>
      <path class="st0" d="M82.4,191.1c1.3.5,2.2-.4,2.1-1.7,0-.5-.9-.9-1.4-1.4-.6.4-1.5.7-1.6,1.2,0,.6.4,1.6.8,1.8h.1Z"/>
      <path class="st0" d="M83.2,203.7c.5,0,1-1,1.4-1.6-.4-.6-.8-1.5-1.3-1.6-.6,0-1.8.4-1.9.9-.5,1.4.4,2.3,1.8,2.2h0Z"/>
      <path class="st0" d="M89.3,196.9c.7-.2,1.3-.5,2-.8-.2-.3-.4-.7-.7-.9-.9-.4-1.6-.1-1.9.8,0,.2.5.9.6.9Z"/>
      <path class="st0" d="M89.4,209.3c.6-.2,1.2-.5,1.9-.8-.2-.3-.5-.9-.6-.8-.6.1-1.2.5-1.9.7.2.3.5.9.6.9Z"/>
      <path class="st0" d="M89.8,245.9c-.5.3-1.4.6-1.5,1,0,.6.2,1.6.7,1.9,1.1.5,2.1,0,2.1-1.3s-.8-1-1.3-1.6Z"/>
      <path class="st0" d="M91.6,157.6c-.4-.6-.8-1.5-1.3-1.6-.5-.1-1.7.4-1.8.9-.4,1.3.3,2.3,1.7,2.2.5,0,.9-1,1.4-1.5Z"/>
      <path class="st0" d="M89.9,171.6c.5,0,1.2-.7,1.8-1.2-.3-.7-.4-1.7-1-1.9-.4-.2-1.6.2-1.9.6-.7,1.2-.1,2.2,1.1,2.4h0Z"/>
      <path class="st0" d="M90.2,181c-.5.4-1.4.8-1.5,1.3,0,.6.4,1.7.8,1.9,1.3.4,2.3-.4,2.2-1.8,0-.5-1-.9-1.5-1.4Z"/>
      <path class="st0" d="M90.3,233c-.5-.1-1.7.4-1.8.8-.4,1.3.3,2.3,1.7,2.2.5,0,.9-1,1.4-1.5-.4-.6-.8-1.5-1.3-1.6h0Z"/>
      <path class="st0" d="M63.4,233.8c.2.7.5,1.3.8,1.9.3-.3.9-.6.8-.7-.2-.7-.5-1.3-.8-1.9-.3.3-.9.6-.8.7Z"/>
      <path class="st0" d="M62.3,247.2c-.1.5.3,1.6.7,1.7,1.3.4,2.1-.4,2-1.7,0-.4-.9-.8-1.3-1.3-.4.4-1.3.7-1.4,1.3Z"/>
      <path class="st0" d="M64.2,261c.2,0,.9-.5.8-.6,0-.7-.5-1.3-.7-1.9-.3.2-.7.4-.9.7-.4.9-.1,1.6.8,1.9h0Z"/>
      <path class="st0" d="M64.2,223.1c.3-.2.9-.5.8-.7,0-.6-.5-1.3-.7-1.9-.3.2-.9.5-.9.6.2.7.5,1.3.8,1.9h0Z"/>
      <path class="st0" d="M63.5,208.5c.1.7.4,1.3.7,1.9.3-.2.9-.5.9-.6-.1-.6-.4-1.3-.6-1.9-.3.2-.9.5-.9.6h-.1Z"/>
      <path class="st0" d="M64.3,194.1c-.3.2-.9.5-.8.6.1.6.5,1.2.7,1.8.3-.2.6-.4.9-.6-.3-.6-.6-1.2-.8-1.8Z"/>
      <path class="st0" d="M63.1,181.7c-.5.4-.7,1.3-1.1,2,.7.3,1.4.8,2.1.7,1-.1,1.2-1,.9-2-.4-1-1.2-1.4-2-.7h.1Z"/>
      <path class="st0" d="M6.9,241.1c0-.3,0-.6-.2-.8-.3-.2-.7-.3-.9-.2-.8.5-.7,1,.3,1.2.3,0,.6-.2.9-.3h0Z"/>
      <path class="st0" d="M6.1,203.7c.5,0,1-.8,1.5-1.3-.3-.6-.6-1.6-1-1.7-.5-.2-1.6.3-1.9.8-.6,1.2,0,2.2,1.4,2.2Z"/>
      <path class="st0" d="M7.6,190c-.3-.6-.5-1.6-.9-1.8-.5-.2-1.6.2-1.9.7-.7,1.2,0,2.1,1.2,2.3.5,0,1-.8,1.6-1.2Z"/>
      <path class="st0" d="M4.8,253.2c.6.3,1.1.6,1.8.9.2-.3.5-.5.7-.8-.6-.3-1.1-.7-1.7-.8-.2,0-.5.4-.7.7h0Z"/>
      <path class="st0" d="M82.3,255.7c1.4.5,2.2-.4,2.2-1.7s-1-.9-1.5-1.3c-.6.4-1.5.7-1.6,1.2,0,.6.4,1.7.9,1.9h0Z"/>
      <path class="st0" d="M211.8,227.7c-.1,0-.2.6-.3.8.4,0,.9.4,1,.3.8-.7.5-1.2-.7-1.2h0Z"/>
      <path class="st0" d="M212.2,213.3c-.6.3-1.5.6-1.7,1-.2.5.2,1.7.7,1.9,1.2.6,2.2,0,2.3-1.4,0-.5-.8-1-1.2-1.6h-.1Z"/>
      <path class="st0" d="M211.3,241.6c.7-.2,1.3-.5,1.9-.7-.2-.3-.5-.9-.7-.8-.6.1-1.3.5-1.9.7.2.3.5.9.7.9h0Z"/>
      <path class="st0" d="M211.6,191.3c.6-.3,1.6-.5,1.8-1,.2-.5-.2-1.6-.6-1.9-1.2-.7-2.1,0-2.3,1.2,0,.5.7,1.1,1.1,1.7Z"/>
      <path class="st0" d="M212,176.8c.2,0,.6-.2.9-.3,0-.3,0-.6-.2-.7-.3-.2-.7-.3-.9-.2-.8.5-.7.9.3,1.2h0Z"/>
      <path class="st0" d="M212.1,163c-.6.3-1.7.6-1.7,1,0,.6.4,1.7.9,2,1.4.7,2.3,0,2.4-1.5,0-.5-1-1-1.6-1.5Z"/>
      <path class="st0" d="M211,255.3c.7-.3,1.5-.5,2-1,.7-.7.4-1.7-.7-1.8-.6,0-1.7.3-1.9.8-.2.4.4,1.3.6,2Z"/>
      <path class="st0" d="M115.1,258.3c-.5,0-1,.8-1.6,1.3.4.6.6,1.6,1.1,1.7.6,0,1.7-.2,2-.7.6-1.3-.2-2.2-1.5-2.3Z"/>
      <path class="st0" d="M113.8,196.1c0,.2.4.7.8.9.9.4,1.6,0,2-.9-.3-.3-.5-.7-.8-.9-.9-.4-1.7,0-1.9.9h-.1Z"/>
      <path class="st0" d="M115.9,181.1c-.5-.2-1.7.2-2,.7-.8,1.3,0,2.2,1.3,2.4.5,0,1.1-.7,1.7-1.2-.3-.7-.5-1.7-1-1.9Z"/>
      <path class="st0" d="M121.7,241.5c.6,0,1.2-.5,1.8-.7-.2-.3-.5-.8-.6-.8-.6.1-1.2.4-1.8.7.2.3.5.8.6.8Z"/>
      <path class="st0" d="M101,221.4c0,.6.3,1.7.8,1.9,1.3.6,2.2-.2,2.3-1.5,0-.5-.9-1-1.4-1.5-.6.3-1.6.6-1.7,1.1Z"/>
      <path class="st0" d="M103.9,208.5c-.2-.3-.5-.8-.7-.8-.6.2-1.2.5-1.8.8.2.3.5.8.7.8.6-.2,1.2-.5,1.8-.8Z"/>
      <path class="st0" d="M102,261.3c.7-.3,1.7-.4,2-.9.3-.4,0-1.6-.5-2-1.2-.9-2.2-.2-2.5,1,0,.5.6,1.2,1,1.8h0Z"/>
      <path class="st0" d="M95.4,229.1c.6.1,1.3-.5,2-.7-.2-.7-.5-1.4-.7-2.1-.7.3-1.5.5-1.9,1-.6.7-.2,1.7.7,1.8h0Z"/>
      <path class="st0" d="M104,246.6c-.2-.5-1.1-.6-1.7-.9-.3.6-.6,1.2-.9,1.9.6.3,1.2.6,1.9.9.3-.6.9-1.4.7-1.8h0Z"/>
      <path class="st0" d="M96.5,201c-.3.2-.8.6-.8.7.2.6.5,1.2.8,1.9.3-.2.6-.5.8-.7-.3-.6-.6-1.2-.9-1.8h0Z"/>
      <path class="st0" d="M95.7,214.3c.2.6.5,1.2.8,1.8.3-.2.8-.6.8-.7-.2-.6-.5-1.2-.8-1.8-.3.2-.8.6-.8.7Z"/>
      <path class="st0" d="M94.7,254.3c.4.5,1.2.7,1.9,1,.3-.7.5-1.3.8-2-.6-.3-1.3-.9-1.9-.8-1,0-1.3,1.1-.7,1.8h-.1Z"/>
      <path class="st0" d="M103.1,232.9c-.6,0-1.7.4-1.9.9-.4,1.3.4,2.3,1.8,2.2.5,0,.9-1,1.4-1.5-.4-.5-.8-1.5-1.3-1.5h0Z"/>
      <path class="st0" d="M94.6,240.7c.2.3.3.7.6.8.8.4,1.5.1,1.7-.8,0-.2-.4-.9-.6-.8-.6.2-1.2.5-1.8.7h.1Z"/>
      <path class="st0" d="M171.8,254.3c.4.5,1.2.7,1.9,1,.3-.7.5-1.3.8-2-.6-.3-1.3-.9-1.9-.8-1,0-1.3,1.1-.7,1.8h-.1Z"/>
      <path class="st0" d="M172.3,241.5c.6-.1,1.2-.5,1.7-.7-.2-.3-.5-.9-.6-.9-.6.2-1.2.5-1.8.8.2.3.5.8.6.8h.1Z"/>
      <path class="st0" d="M193.8,259.6c0-.5-.8-1.1-1.2-1.6-.6.3-1.5.5-1.7,1-.2.5.2,1.6.7,1.8,1.2.6,2.1,0,2.2-1.3h0Z"/>
      <path class="st0" d="M191.2,222c.7.4,1.3.7,2,1.1.3-.7.9-1.5.7-2-.2-.5-1.3-1-1.9-.9-1,0-1.3.9-.8,1.8Z"/>
      <path class="st0" d="M193.1,195.2c-.7.1-1.3.4-1.9.7.2.3.5.9.6.8.6-.1,1.3-.4,1.9-.7-.2-.3-.5-.9-.6-.9h0Z"/>
      <path class="st0" d="M192.3,245.6c-.5,0-1,.8-1.6,1.2.3.6.6,1.5,1,1.7.5.2,1.6-.2,1.9-.7.6-1.2,0-2.2-1.4-2.3h.1Z"/>
      <path class="st0" d="M191.9,209.3c.6-.2,1.2-.5,1.8-.8-.2-.3-.5-.6-.7-.8-.6.3-1.2.6-1.8.8.2.3.5.8.7.8Z"/>
      <path class="st0" d="M200.7,239.8c-.7-.4-1.3-.7-2-1.1-.3.7-1,1.5-.8,2,.2.5,1.2,1,1.9.9,1,0,1.3-.9.9-1.8Z"/>
      <path class="st0" d="M199.6,255.1c.5-.4.7-1.3,1.1-1.9-.7-.3-1.5-.9-2-.7-.5,0-.9,1.3-.8,1.9.1,1,1,1.3,1.8.8h-.1Z"/>
      <path class="st0" d="M174.1,214.8c0-.5-.8-1.1-1.2-1.7-.6.4-1.6.6-1.8,1.1-.2.5.2,1.7.7,1.9,1.3.7,2.2,0,2.4-1.4h-.1Z"/>
      <path class="st0" d="M160,252.4c-.9.4-1.3,1.1-.7,1.9.4.5,1.2.7,1.9,1,.3-.7.9-1.5.7-2-.2-.5-1.2-.6-1.9-.9Z"/>
      <path class="st0" d="M160.7,239.9c-.9-.3-1.7,0-1.9.9,0,.2.4.7.7.9.9.4,1.7,0,1.9-.9,0-.2-.5-.6-.7-.9Z"/>
      <path class="st0" d="M165.4,246.6c-.2.5.3,1.6.8,2,1.1.7,2.1.2,2.8-.9-.3-.7-.4-1.6-.9-2-1.1-.8-2.2-.2-2.7.9Z"/>
      <path class="st0" d="M165.4,259.4c0,.6.3,1.8.8,2s1.4-.4,2.1-.7c-.3-.7-.5-1.6-1-2-.8-.7-1.7-.3-1.9.7Z"/>
      <path class="st0" d="M166.4,236.1c1.4.4,2.3-.5,2.1-1.8,0-.5-1-.9-1.5-1.4-.5.4-1.4.8-1.5,1.3,0,.6.4,1.8.9,1.9Z"/>
      <path class="st0" d="M165.6,196c.6.4,1.2.9,1.8,1,.3,0,.7-.9,1-1.4-.7-.2-1.4-.5-2.1-.5s-.5.5-.8.8h0Z"/>
      <path class="st0" d="M166.8,223c.5,0,1-.8,1.6-1.3-.3-.5-.6-1.5-1-1.6-.6-.1-1.6.2-1.8.7-.5,1.1,0,2.2,1.3,2.2h-.1Z"/>
      <path class="st0" d="M166.3,184.4c.6.1,1.7-.2,1.9-.6.4-1.2-.3-2.1-1.5-2.2-.4,0-.8.9-1.3,1.4.3.5.5,1.4.9,1.5h0Z"/>
      <path class="st0" d="M167.4,171.7c1-.1,1.3-1.1.7-1.9-.4-.5-1.3-.8-1.9-1.1-.2.7-.8,1.5-.6,2.1.2.5,1.3,1,1.9.9h-.1Z"/>
      <path class="st0" d="M165.9,210.6c1.3.4,2.2-.4,2.3-1.6,0-.4-.8-.9-1.3-1.4-.6.4-1.6.6-1.7,1.1-.2.6.2,1.8.6,1.9h.1Z"/>
      <path class="st0" d="M211.6,75.8c.5,0,1-.8,1.5-1.3-.3-.5-.6-1.5-1-1.5-.6-.1-1.6.3-1.8.7-.5,1.1-.1,2.2,1.2,2.1h0Z"/>
      <path class="st0" d="M186.3,98c-.5.2-.9,1.2-.8,1.9,0,1,1,1.3,1.7.7.5-.4.7-1.2,1.1-1.9-.7-.3-1.5-.9-2-.7Z"/>
      <path class="st0" d="M18.6,88c0,.3.5.5.8.8.4-.6.9-1.2,1.1-1.9,0-.2-.9-.7-1.4-1.1-.2.8-.5,1.4-.5,2.1h0Z"/>
      <path class="st0" d="M49.2,42.1c0,.6.4,1.7.9,1.9,1.4.5,2.3-.4,2.2-1.7,0-.5-.9-.9-1.5-1.4-.6.4-1.5.8-1.6,1.3h0Z"/>
      <path class="st0" d="M31.1,48.3c0,.5.8,1.1,1.2,1.7.7-.3,1.4-.6,2.1-.9-.3-.7-.4-1.6-1-2-1.3-.9-2.2-.1-2.3,1.2Z"/>
      <path class="st0" d="M37.4,81.9c.6.2,1.8-.2,1.9-.5.5-1.2-.4-2-1.6-2.2-.4,0-1,.7-1.5,1.1.4.6.6,1.5,1.1,1.6h.1Z"/>
      <path class="st0" d="M50.9,81.9c.5,0,1.1-.6,1.7-1-.3-.6-.4-1.7-.8-1.8-.5-.2-1.5.2-1.9.7-.9,1.2-.1,2,1,2.1Z"/>
      <path class="st0" d="M50.7,69.2c.5,0,1.1-.7,1.7-1.2-.3-.7-.5-1.7-1-1.9-.5-.2-1.7.2-1.9.7-.7,1.3,0,2.2,1.3,2.3h-.1Z"/>
      <path class="st0" d="M50.8,56.6c.5,0,1.1-.8,1.6-1.3-.4-.6-.6-1.6-1.1-1.8-.6-.2-1.7.3-2,.8-.6,1.3.1,2.2,1.5,2.3Z"/>
      <path class="st0" d="M50.5,95.5c1.1-.3,2-1.1,2.8-1.6-1.1-1.4-1.9-2.5-2-2.4-1,.6-2.2,1.2-2.6,2.1-.5,1.1.3,2.4,1.8,1.9Z"/>
      <path class="st0" d="M7,72.9c-.5-.2-1.4.4-2.1.6.3.7.5,1.6,1,2,.7.6,1.5.3,1.9-.7-.3-.7-.4-1.8-.8-2h0Z"/>
      <path class="st0" d="M152.2,69.4c1.9.8,3-.4,3.4-2s-.6-1.1-1-1.7c-1.4-.1-2.2.7-2.9,1.7-.6.8-.5,1.7.4,2.1h0Z"/>
      <path class="st0" d="M134,37.1c1.1.3,2.2,0,2-1.5,0-.5-.9-.9-1.5-1.4-.5.4-1.3.7-1.4,1.2,0,.6.4,1.6.8,1.8h0Z"/>
      <path class="st0" d="M185.2,37.5c1.2.5,2.3,0,3-1.2,0-1.4-.6-2.4-2-2.6-.6,0-1.5.5-1.9,1-.8,1.1-.4,2.2.9,2.7h0Z"/>
      <path class="st0" d="M90.2,53.1c-1.5.2-2.1,1.2-1.8,2.5,0,.5,1.3,1.1,1.9,1.1,1.3-.2,2.2-1.1,1.7-2.5-.2-.5-1.2-.8-1.8-1.1Z"/>
      <path class="st0" d="M83.6,113.7c.3,0,.8-.5.8-.8,0-2.9-2.2-2.7-3.9-3.1.4,1.8.3,4,3.1,3.9Z"/>
      <path class="st0" d="M76.2,106.2c-.8,1.1,0,2.2,1,2.7,1,.4,2.1.5,3.1.7-.5-1-1-1.9-1.6-2.8-.6-1-1.5-1.9-2.5-.6Z"/>
      <path class="st0" d="M80.3,109.6v.2h.2v-.2h-.2Z"/>
      <path class="st0" d="M127.9,56.6c.5,0,1-.8,1.6-1.3-.3-.6-.6-1.6-1.1-1.8-.6-.2-1.7.3-2,.8-.6,1.3,0,2.2,1.5,2.3Z"/>
      <path class="st0" d="M127.3,69.1c.5.2,1.7-.2,1.9-.7.6-1.2,0-2.2-1.4-2.3-.5,0-1.1.8-1.6,1.3.4.6.6,1.6,1.1,1.7Z"/>
      <path class="st0" d="M128.8,40.8c-.4-.2-1.3.4-2,.6.3.7.5,1.5,1,2,.7.7,1.5.3,1.9-.7-.3-.7-.4-1.7-.8-1.9h-.1Z"/>
      <path class="st0" d="M134.3,50.7c.9,0,1.8-1.2,2.6-1.9-.4-.9-.7-1.6-1.1-2.2-1,.6-2.3.9-2.8,1.8-.7,1,0,2.4,1.3,2.3Z"/>
      <path class="st0" d="M129.6,80.8c-.3-.7-.5-1.4-.8-2.1-.7.3-1.6.5-2,1-.3.4-.3,1.6,0,1.8,1.1.8,2.1.3,2.8-.8h0Z"/>
      <path class="st0" d="M108.8,59.3c-.5.1-1.1,1.2-1.1,1.9s.6,1.8,1.1,1.9c1.4.4,2.2-.6,2.5-1.9-.3-1.3-1.1-2.3-2.5-1.9Z"/>
      <path class="st0" d="M126.7,95.6c1.8,0,3.1-.9,3-2.8,0-.5-1-.9-1.7-1.5-.8.8-1.7,1.5-2.2,2.5s.6,1.8,1,1.8h-.1Z"/>
      <path class="st0" d="M37.7,40.5c-.6,0-1.3,1-1.3,1.6,0,1.3.8,2.3,2.3,2,.6,0,.9-1.1,1.3-1.6,0-1.5-.8-2.3-2.3-2Z"/>
      <path class="st0" d="M39.1,105.2c-.7.1-1.3.4-1.9.7.2.3.5.9.6.9.7-.1,1.3-.4,1.9-.7-.2-.3-.5-.9-.6-.9Z"/>
      <path class="st0" d="M37.2,66.6c-.8,1.1-.2,2.1,1,2.4.5.1,1.2-.6,1.8-1-.3-.7-.4-1.6-.8-1.9-.4-.3-1.6,0-1.9.4h-.1Z"/>
      <path class="st0" d="M39.8,55.7c-.3-.7-.4-1.7-.9-2-.4-.3-1.6,0-2,.4-.9,1.1-.3,2.2.9,2.5.5.1,1.2-.6,1.9-1h.1Z"/>
      <path class="st0" d="M39.5,93.5c-.3-.3-.5-.7-.8-.9-.9-.4-1.7,0-1.9.9,0,.2.4.7.8.9.9.4,1.6,0,2-.9h-.1Z"/>
      <path class="st0" d="M32.8,74.8c-.3-.7-.4-1.8-.8-2-.6-.2-1.4.4-2.2.7.3.7.5,1.6,1,2,.7.6,1.5.2,2-.8h0Z"/>
      <path class="st0" d="M31.9,63.2c.3-.6.6-1.2.9-1.8-.3-.2-.6-.7-.8-.7-.9.2-1.2.9-.9,1.7,0,.3.5.5.8.8Z"/>
      <path class="st0" d="M30.3,111.9c-.9,1-.4,2,.9,2.3.5,0,1.1-.6,1.7-.9-.2-.7-.3-1.6-.8-1.9-.3-.2-1.4,0-1.8.6h0Z"/>
      <path class="st0" d="M31.1,100.3c0,.2.5.5.8.8.3-.6.6-1.2,1-1.9-.3-.2-.6-.5-.9-.8-.3.6-.7,1.2-.9,1.9Z"/>
      <path class="st0" d="M30.9,35.3c.4.7.6,1.7,1,1.9.6.2,1.8-.3,2-.7.5-1.3-.3-2.3-1.6-2.5-.4,0-1,.8-1.4,1.3Z"/>
      <path class="st0" d="M44.5,111.1c-.3.6-.7,1.2-.9,1.8,0,.2.5.8.7.7.9-.2,1.3-.8.9-1.9-.2-.2-.5-.4-.7-.7h0Z"/>
      <path class="st0" d="M44.5,85.8c-.3.2-.9.5-.9.7,0,.7.5,1.3.7,1.9.3-.2.9-.5.8-.7-.1-.7-.5-1.3-.7-1.9h0Z"/>
      <path class="st0" d="M50.4,105.2c-1.1,0-1.3.9-.9,1.8.7.4,1.4.7,2.1,1.1.3-.7,1-1.6.8-2-.2-.5-1.3-1-2-.9Z"/>
      <path class="st0" d="M57.1,37.2c.7-.4,1.7-.5,2-1.1.3-.5,0-1.8-.3-2-1.3-.8-2.3,0-2.6,1.3,0,.5.6,1.2.9,1.8Z"/>
      <path class="st0" d="M44.3,46.8c-.3.7-.6,1.4-.9,2.1.7.3,1.4.8,2,.7.9-.1,1.2-.9.8-1.8-.7-.3-1.3-.7-2-1h.1Z"/>
      <path class="st0" d="M43.7,99.1c.1.7.5,1.3.7,2,.3-.2.9-.5.9-.7-.1-.7-.5-1.3-.7-2-.3.2-.9.5-.9.7Z"/>
      <path class="st0" d="M45.7,60.4c-.6.2-1.1.5-1.7.8.2.3.5.8.6.8.6-.2,1.1-.5,1.7-.8-.2-.3-.5-.8-.6-.8Z"/>
      <path class="st0" d="M5.9,36.9c.5,0,1.1-.7,1.7-1.1-.3-.7-.5-1.7-1-1.9-.5-.2-1.7.2-2,.7-.8,1.3,0,2.2,1.3,2.3Z"/>
      <path class="st0" d="M5.2,88.5c1.3.6,2.1-.2,2.2-1.4,0-.5-.8-1-1.2-1.5-.6.3-1.6.6-1.7,1.1-.2.5.2,1.6.7,1.9h0Z"/>
      <path class="st0" d="M6.6,110.9c-.5-.2-1.6.2-1.9.7-.7,1.2,0,2.1,1.3,2.3.5,0,1-.7,1.6-1.1-.3-.6-.5-1.6-1-1.8h0Z"/>
      <path class="st0" d="M6.7,98.2c-.5-.1-1.6.3-1.9.8-.6,1.3.2,2.2,1.4,2.3.5,0,1-.8,1.5-1.3-.3-.6-.6-1.6-1-1.7h0Z"/>
      <path class="st0" d="M6.6,60.4c-.6.2-1.2.5-1.8.8.2.3.6.8.7.8.6-.2,1.2-.5,1.8-.8-.2-.3-.6-.8-.7-.8Z"/>
      <path class="st0" d="M5.9,46.9c-.5.4-.7,1.2-1.1,1.9.7.3,1.5.8,2,.7.5-.2.6-1.2.9-1.9-.4-.9-1.1-1.3-1.9-.7h0Z"/>
      <path class="st0" d="M18.2,36.9c.6,0,1.3-.5,2-.8-.2-.7-.4-1.4-.6-2.1-.6.3-1.4.5-1.9,1-.6.7-.4,1.7.6,1.8h0Z"/>
      <path class="st0" d="M17.7,112.1c-.6.7-.3,1.7.6,1.9.6.1,1.3-.5,2-.8-.2-.7-.5-1.4-.7-2.2-.7.3-1.5.5-1.9,1h0Z"/>
      <path class="st0" d="M18.6,100.3c0,.2.5.5.7.8.3-.6.6-1.2,1-1.8-.3-.2-.5-.5-.8-.7-.3.6-.7,1.2-.9,1.8h0Z"/>
      <path class="st0" d="M18.6,48.6c0,.1.5.5.8.7.3-.6.6-1.2.9-1.8-.3-.2-.6-.5-.9-.7-.3.6-.7,1.2-.8,1.8Z"/>
      <path class="st0" d="M18.2,62c.6,0,1.2-.5,1.8-.7-.2-.3-.5-.9-.6-.9-.6.2-1.2.5-1.8.8.2.3.5.9.6.8Z"/>
      <path class="st0" d="M24.1,93.5c0,.2.5.9.7.9.7-.2,1.3-.6,2-.9-.2-.3-.4-.8-.7-.9-.9-.4-1.7,0-1.9.9h0Z"/>
      <path class="st0" d="M18.5,75.6c.7.6,1.5.2,1.8-.7-.3-.7-.5-1.4-.8-2-.7.3-1.4.5-2.1.8.3.7.5,1.5,1,2h0Z"/>
      <path class="st0" d="M25.1,44.1c.7-.3,1.7-.5,1.9-1,.2-.5-.2-1.6-.7-2-1.2-.8-2.2,0-2.4,1.2,0,.5.7,1.2,1.1,1.7h.1Z"/>
      <path class="st0" d="M26.4,81.3s-.2-.6-.2-.8c-.3,0-1,.1-1,.3-.2,1,.3,1.2,1.2.6h0Z"/>
      <path class="st0" d="M26.2,53.5c-.5-.2-1.7.2-1.9.6-.7,1.2,0,2.2,1.2,2.4.5,0,1.2-.7,1.7-1.2-.3-.7-.5-1.7-1-1.9h0Z"/>
      <path class="st0" d="M25.1,66.4c-.4,0-.9.8-1.4,1.2.3.6.6,1.5,1,1.7.5.2,1.8-.2,1.9-.6.4-1.2-.4-2.1-1.5-2.3Z"/>
      <path class="st0" d="M26.1,105.3c-.6-.1-1.6,0-1.9.4-.8,1-.4,2,.7,2.4.5.1,1.2-.6,1.8-1,.5-.8.4-1.6-.6-1.8Z"/>
      <path class="st0" d="M13.1,81.9c1,0,1.3-.9.9-1.8-.7-.4-1.3-.8-2-1.2-.3.7-1,1.5-.9,2.1,0,.4,1.2,1,1.9.9h.1Z"/>
      <path class="st0" d="M12.1,91.5c-.2.6-.8,1.4-.6,1.9.2.5,1.2.6,1.8.9.9-.3,1.3-1,.7-1.8-.4-.5-1.2-.7-1.8-1h0Z"/>
      <path class="st0" d="M13.3,105.2c-.9-.4-1.8-.2-2,.7,0,.6.4,1.4.6,2.1.7-.3,1.4-.5,2-.8.6-.9.4-1.6-.6-2Z"/>
      <path class="st0" d="M11.7,41.7c-.4,1.3.2,2.2,1.4,2.3.5,0,1-.8,1.6-1.2-.3-.6-.6-1.4-1.1-1.8-.7-.6-1.6-.3-1.9.6h0Z"/>
      <path class="st0" d="M12.1,56.4c.2,0,.8-.4.9-.7.4-.9,0-1.6-.8-2-.3.2-.8.4-.9.8-.4.9,0,1.7.8,2h0Z"/>
      <path class="st0" d="M12.1,69.3c.5.2,1.7-.2,1.8-.6.4-1.2-.3-2.1-1.5-2.3-.4,0-.9.8-1.3,1.3.3.6.5,1.5,1,1.7h0Z"/>
      <path class="st0" d="M44.5,73.2c-.3.2-1,.5-.9.6.2.7.5,1.3.7,2,.3-.2.8-.4.9-.7.5-.9.2-1.6-.8-2h0Z"/>
      <path class="st0" d="M82.9,46.9c-.5.4-.8,1.3-1.1,1.9.7.3,1.5.9,2.1.7.5-.2,1-1.3.9-1.9-.1-1-1.1-1.3-1.8-.7h0Z"/>
      <path class="st0" d="M83.6,60.4c-.6.3-1.3.6-1.9.9.3.3.5.7.8.9.9.4,1.6,0,1.9-.9,0-.2-.5-.6-.7-.9h0Z"/>
      <path class="st0" d="M83,36.9c.5,0,1.1-.7,1.7-1.1-.3-.7-.5-1.6-1.1-1.9-.5-.2-1.6.2-1.9.7-.8,1.3,0,2.2,1.3,2.3Z"/>
      <path class="st0" d="M58,75.6c.5-.5.7-1.3,1.1-2-.7-.3-1.6-.9-2.1-.6-.5.2-.9,1.3-.9,1.9,0,1,1.1,1.3,1.9.7Z"/>
      <path class="st0" d="M77.6,55.5c-.1-.7-.5-1.3-.7-2-.3.2-.9.5-.9.7.1.7.5,1.3.7,2,.3-.2.9-.5.9-.7Z"/>
      <path class="st0" d="M76.7,81.3c.3-.6.5-1.1.8-1.7-.3-.2-.5-.5-.8-.7-.3.6-.6,1.1-.8,1.7,0,.1.5.4.8.7Z"/>
      <path class="st0" d="M83.1,88.7c.5,0,1-.8,1.6-1.2-.3-.6-.5-1.6-.9-1.8-.5-.2-1.6.2-1.9.7-.7,1.2,0,2.1,1.2,2.3Z"/>
      <path class="st0" d="M76.6,94.1c1-.1,1.3-.7,1-1.7-.2-.2-.5-.5-.8-.7-.3.6-.7,1.1-1,1.7,0,.1.5.7.8.7Z"/>
      <path class="st0" d="M76.6,43.7c.9-.2,1.3-.9,1-1.8-.3-.3-.6-.8-.9-.8-1,.2-1.3.9-1,1.8.1.3.6.8.8.8h.1Z"/>
      <path class="st0" d="M76.7,68.9c.3-.2.9-.5.8-.7,0-.7-.5-1.3-.7-1.9-.3.2-.9.5-.8.7.1.7.5,1.3.7,2h0Z"/>
      <path class="st0" d="M97.1,99.8c0-.5-.8-1.1-1.2-1.7-.6.3-1.6.6-1.8,1.1s.2,1.7.7,1.9c1.3.7,2.2,0,2.3-1.3Z"/>
      <path class="st0" d="M90.3,105.1c-.7.3-1.8.4-2,.8-.2.6.4,1.4.7,2.2.7-.3,1.6-.5,2-1,.6-.8.2-1.5-.7-2Z"/>
      <path class="st0" d="M91.2,80c-.6-.4-1.3-.8-1.9-1.2-.3.7-.9,1.5-.8,2,.1.5,1.2,1,1.8.9,1,0,1.2-.9.9-1.8h0Z"/>
      <path class="st0" d="M88.8,93.5c0,.2.5.9.6.8.6-.2,1.2-.5,1.8-.7-.2-.3-.4-.7-.7-.9-.8-.4-1.5-.1-1.8.8h.1Z"/>
      <path class="st0" d="M91,67.4c-.4-.5-1.3-.8-1.9-1.2-.3.7-.5,1.4-.8,2.1.4.9,1,1.3,2,1s1.3-1.1.7-1.9Z"/>
      <path class="st0" d="M84.7,99.8c-.2-.3-.3-.7-.5-1-.2.3-.6.6-.6.9s.3.7.5,1c.2-.3.4-.6.7-.9h-.1Z"/>
      <path class="st0" d="M82.9,73c-1,.4-1.3,1.1-.7,1.9.5.6,1.3.8,1.9,1.2.2-.7.8-1.6.6-2.1-.2-.5-1.2-.7-1.9-1h.1Z"/>
      <path class="st0" d="M91.1,42.6c.6-.7.3-1.5-.6-1.9-.7.3-1.8.4-1.9.9-.2.6.4,1.4.6,2.1.7-.3,1.5-.5,2-1h0Z"/>
      <path class="st0" d="M64.6,65.8c-1.1-.5-2.4-.4-2.9.9-.7,1.7,0,2.9,1.8,3.3,1.2.2,2.2-.3,2.6-1.1.3-1.6-.4-2.5-1.5-3h0Z"/>
      <path class="st0" d="M63.1,79.2c-.5.4-.7,1.3-1.1,1.9.7.3,1.4.8,2.1.7,1-.1,1.2-1,.9-1.9-.4-1-1.2-1.4-2-.7h.1Z"/>
      <path class="st0" d="M64.2,105.2c-.5-.2-1.7.2-1.9.6-.6,1.2.2,2,1.3,2.2.4,0,1-.7,1.5-1.1-.3-.6-.5-1.6-.9-1.7Z"/>
      <path class="st0" d="M64.8,93.6c-.2-.3-.5-1-.6-.9-.7.2-1.3.5-2,.7.2.3.4.8.7.9.9.5,1.6.2,2-.7h-.1Z"/>
      <path class="st0" d="M59,47.8c-.7-.4-1.3-.7-2-1.1-.3.7-1,1.5-.8,2,.2.5,1.2.9,1.9.9,1,0,1.3-.9.9-1.7h0Z"/>
      <path class="st0" d="M57.1,62c.6,0,1.3-.5,1.9-.7-.2-.3-.5-.9-.6-.8-.6.2-1.3.5-1.9.7.2.3.5.9.7.8h0Z"/>
      <path class="st0" d="M56.8,86.2c-.9,1.1-.3,2.1.9,2.5.5.1,1.2-.6,1.8-.9-.2-.7-.3-1.6-.8-1.9-.4-.3-1.6,0-1.9.3Z"/>
      <path class="st0" d="M56.9,111.1c-.3.7-1,1.5-.8,2.1,0,.5,1.3,1,1.9.9,1,0,1.3-.9.9-1.8-.7-.4-1.3-.8-2-1.2Z"/>
      <path class="st0" d="M58.5,98.3c-.4-.2-1.6.2-1.9.6-.7,1.1,0,2.1,1.1,2.3.5,0,1.1-.7,1.7-1.1-.3-.6-.5-1.6-1-1.8h0Z"/>
      <path class="st0" d="M70.9,47.9c-.9-.4-1.6,0-1.9.9,0,.2.5.9.7.8.7-.2,1.3-.6,2-.9-.3-.3-.4-.7-.8-.9h0Z"/>
      <path class="st0" d="M70.3,88.8c.5,0,1.1-.7,1.7-1.2-.3-.7-.5-1.7-1-1.9-.5-.2-1.7.2-1.9.6-.7,1.2,0,2.2,1.2,2.4h0Z"/>
      <path class="st0" d="M69.8,99.7c.2.3.5.6.8.7.8.3,1.5,0,1.4-.9,0-.5-.9-.9-1.4-1.4-1,.2-1.3.7-.8,1.6Z"/>
      <path class="st0" d="M70.4,110.9c-.5,0-1,.8-1.5,1.3.3.6.6,1.6,1.1,1.7.5.2,1.7-.2,1.9-.7.6-1.2-.1-2.2-1.4-2.2h0Z"/>
      <path class="st0" d="M69.3,34.4c-.8,1.1-.3,2.1,1,2.4.5.1,1.2-.6,1.8-.9-.3-.7-.4-1.6-.9-1.9-.4-.3-1.6,0-1.9.4Z"/>
      <path class="st0" d="M63.4,56.6c.5,0,1.1-.8,1.6-1.2-.3-.7-.5-1.7-1-1.9-.5-.2-1.7.3-1.9.8-.7,1.3,0,2.2,1.3,2.4h0Z"/>
      <path class="st0" d="M64.2,41c-.3.2-.9.6-.8.7.2.7.6,1.3.9,1.9.3-.3.6-.5.8-.8l-.9-1.8Z"/>
      <path class="st0" d="M69.8,76.1c1.3.5,2.2-.4,2.1-1.7,0-.5-1-.9-1.5-1.3-.6.4-1.5.7-1.6,1.2,0,.6.4,1.6.9,1.8h.1Z"/>
      <path class="st0" d="M69.9,62.1c.7-.2,1.3-.5,1.9-.8-.3-.3-.5-.6-.8-.9-.6.3-1.2.6-1.9.9.2.3.6.8.7.8h.1Z"/>
      <path class="st0" d="M204,55.1c.4.5,1.2.8,1.9,1.2.3-.7.5-1.4.8-2.1-.6-.3-1.3-1-1.9-.9-1,.1-1.3,1.1-.7,1.9h0Z"/>
      <path class="st0" d="M210.2,112.1c0,.6.4,1.8.9,2,.5.2,1.4-.4,2.1-.7-.3-.7-.5-1.6-1.1-2-.8-.6-1.8-.3-1.9.7Z"/>
      <path class="st0" d="M204.4,94.4c.9.4,1.6,0,1.9-.9-.3-.3-.6-.9-.8-.9-.7.2-1.3.6-2,.9.3.3.5.7.8.9h.1Z"/>
      <path class="st0" d="M205.3,79c-.5.4-1.4.7-1.5,1.3-.1.4.4,1.5.8,1.6,1.2.4,2.1-.3,2.1-1.6s-.8-.9-1.3-1.3h-.1Z"/>
      <path class="st0" d="M204.8,66.5c-.5.5-.7,1.3-1,2,.7.2,1.5.9,2,.7.5-.3.6-1.3.9-1.9-.3-1-1.1-1.4-1.8-.7h-.1Z"/>
      <path class="st0" d="M204.7,105.2c-.9.4-1.3,1.1-.7,1.9.4.5,1.3.7,1.9,1,.2-.7.9-1.5.6-2-.2-.5-1.2-.6-1.9-.9h.1Z"/>
      <path class="st0" d="M212.6,98.3c-.5-.2-1.6.2-1.9.7-.6,1.2,0,2.2,1.3,2.3.5,0,1.1-.8,1.6-1.2-.3-.6-.6-1.6-1-1.7h0Z"/>
      <path class="st0" d="M199.4,100.4c-.3-.6-.5-1.3-.8-1.9-.3.2-.9.5-.8.7.1.7.5,1.3.7,1.9.3-.2.6-.5.9-.7Z"/>
      <path class="st0" d="M198.4,111.2c-.3.7-.9,1.5-.7,2.1.2.5,1.3,1,1.9.9,1-.1,1.2-1,.8-1.9-.7-.4-1.3-.7-2-1.1Z"/>
      <path class="st0" d="M198.5,46.7c-.3.7-.8,1.5-.6,2,.2.5,1.3.9,1.9.8,1-.1,1.3-1.1.7-1.8-.4-.5-1.3-.7-1.9-1h0Z"/>
      <path class="st0" d="M198.4,86.2c-.9,1.1-.3,2.1.8,2.5.5.1,1.2-.6,1.8-.9-.2-.7-.3-1.6-.8-1.9-.4-.3-1.6,0-1.9.3h.1Z"/>
      <path class="st0" d="M200.1,60.4c-.8-.4-1.6-.1-1.8.8,0,.2.5.9.6.8.7-.2,1.3-.5,1.9-.7-.2-.3-.4-.7-.7-.9Z"/>
      <path class="st0" d="M199.7,37.2c1-.4,1.4-1.2.7-2-.4-.5-1.3-.7-2-1-.3.7-.8,1.5-.7,2.1.2,1,1.1,1.2,2,.9Z"/>
      <path class="st0" d="M200.4,74.8c.6-.7.2-1.5-.7-1.9-.7.3-1.8.4-1.9.8-.2.6.4,1.4.6,2.1.7-.3,1.5-.5,2-1Z"/>
      <path class="st0" d="M204.2,43.9c1.4.5,2.3-.5,2.3-1.8s-1-.9-1.5-1.4c-.6.4-1.6.7-1.7,1.3-.1.6.4,1.7.9,1.9Z"/>
      <path class="st0" d="M210.9,86.2c-.9,1.1-.3,2.1.9,2.5.5.1,1.2-.6,1.8-.9-.2-.7-.3-1.6-.8-1.9-.4-.3-1.6,0-1.9.3Z"/>
      <path class="st0" d="M210.4,36.1c.2.5,1.3,1,1.9.9,1,0,1.4-1,.7-1.8-.5-.6-1.3-.8-2-1.1-.3.7-.9,1.6-.7,2.1h.1Z"/>
      <path class="st0" d="M211.4,62c.6-.2,1.2-.5,1.8-.8-.2-.3-.5-.8-.7-.8-.6.2-1.2.5-1.8.8.2.3.5.8.7.8Z"/>
      <path class="st0" d="M212.5,49.6c1-.3,1.4-1.1.7-1.9-.5-.5-1.3-.7-2-1-.3.7-.9,1.6-.7,2,.3.5,1.3.6,2,.9Z"/>
      <path class="st0" d="M121.4,111c-.2.7-.8,1.5-.6,2.1.2.5,1.2,1,1.8.9,1,0,1.3-1.1.7-1.8-.4-.5-1.2-.8-1.9-1.1h0Z"/>
      <path class="st0" d="M123.3,87.4c.6-.7.3-1.7-.7-1.8-.6,0-1.6.4-1.8.9s.4,1.4.6,2.1c.6-.4,1.4-.6,1.9-1.1h0Z"/>
      <path class="st0" d="M115.1,66.1c-.5,0-1,.8-1.6,1.3.4.6.6,1.6,1.1,1.7.6.2,1.7-.3,2-.7.6-1.3-.2-2.2-1.5-2.3Z"/>
      <path class="st0" d="M115.9,53.5c-.5-.2-1.7.2-2,.7-.7,1.2,0,2.2,1.3,2.4.5,0,1.1-.8,1.7-1.2-.3-.7-.5-1.7-1-1.9Z"/>
      <path class="st0" d="M121.6,46.7c-.3.7-.9,1.4-.8,1.9.1.4,1.2.9,1.8.9.9,0,1.2-.8.9-1.7-.6-.4-1.2-.7-1.9-1.1Z"/>
      <path class="st0" d="M122.4,63.1c.5-.4.7-1.3,1-2-.7-.3-1.4-.6-2.1-.8-.3.7-.9,1.4-.8,2,.1,1,1.1,1.4,1.9.8Z"/>
      <path class="st0" d="M121.4,101c.3-.6.6-1.2,1-1.8-.3-.2-.5-.5-.8-.7-.3.6-.7,1.1-.9,1.8,0,.2.5.5.7.8h0Z"/>
      <path class="st0" d="M121.5,36.9c.5.2,1.3-.4,2-.6-.3-.7-.5-1.5-1-2-.7-.6-1.4-.3-1.8.6.2.7.3,1.7.8,2Z"/>
      <path class="st0" d="M122.5,75.6c.5-.4.7-1.3,1-1.9-.7-.3-1.5-.9-2-.6-.5.2-.9,1.3-.8,1.9.1,1,1,1.3,1.8.7h0Z"/>
      <path class="st0" d="M114.2,93.5c.2.3.5.8.6.8.6-.1,1.2-.4,1.8-.7-.2-.3-.5-.8-.6-.8-.6.1-1.2.5-1.8.7Z"/>
      <path class="st0" d="M114.6,44c.5.2,1.7-.2,1.9-.7.7-1.3,0-2.2-1.4-2.3-.5,0-1.1.8-1.6,1.3.4.6.6,1.6,1.1,1.8h0Z"/>
      <path class="st0" d="M115.3,105.3c-.5.3-1.5.5-1.7,1-.1.6.3,1.7.8,1.9,1.3.6,2.2-.2,2.3-1.5,0-.4-.9-.9-1.5-1.4h.1Z"/>
      <path class="st0" d="M115.8,80.2c-.7.2-1.3.5-2,.8.2.3.6.9.7.9.7-.2,1.3-.5,2-.8-.2-.3-.6-.9-.7-.9Z"/>
      <path class="st0" d="M141.5,79.3c-1.2-.6-2.1.2-2.3,1.3,0,.4.7.9,1.1,1.4.6-.3,1.6-.4,1.8-.9s-.2-1.6-.6-1.9h0Z"/>
      <path class="st0" d="M146.1,112.4c0,.5.7,1,1.1,1.5.6-.3,1.6-.5,1.8-.9.2-.5-.2-1.6-.7-1.9-1.2-.7-2.1,0-2.3,1.2h.1Z"/>
      <path class="st0" d="M147.3,35.7c-.1,0-.2.5-.3.8.3,0,.7.3,1,.3s.2-.5.3-.8c-.3-.1-.7-.3-1-.3Z"/>
      <path class="st0" d="M147,49.5c.6,0,1.2-.5,1.8-.7-.2-.3-.5-.8-.7-.8-.6.1-1.2.4-1.8.7.2.3.5.8.7.8Z"/>
      <path class="st0" d="M148.1,62c.2,0,.5-.5.7-.8-.2-.3-.6-.8-.7-.8-.6.2-1.2.5-1.8.8.6.3,1.2.6,1.8.8Z"/>
      <path class="st0" d="M148.1,85.7c-.5-.2-1.7.2-2,.7-.7,1.2,0,2.2,1.2,2.4.5,0,1.1-.8,1.7-1.2-.3-.7-.5-1.7-1-1.9h.1Z"/>
      <path class="st0" d="M146.8,101.1c1.2.6,2.1-.1,2.2-1.4,0-.5-.8-1-1.2-1.5-.6.3-1.5.6-1.7,1-.2.5.2,1.6.7,1.9Z"/>
      <path class="st0" d="M140.7,93.5c0,.1.4.5.6.7.2-.2.5-.4.7-.6-.4-1-.8-1-1.3-.1Z"/>
      <path class="st0" d="M128.8,105.2c-.5-.2-1.3.4-2,.6.3.7.5,1.5,1,1.9.7.6,1.4.2,1.8-.7-.3-.7-.4-1.7-.8-1.9h0Z"/>
      <path class="st0" d="M134,75.8c.7-.3,1.5-.5,2-1,.7-.7.3-1.6-.6-1.8-.6,0-1.7.3-1.9.8-.2.4.4,1.3.6,2h-.1Z"/>
      <path class="st0" d="M147.2,73.1c-.8.5-.7,1,.3,1.2.2,0,.6-.2.9-.3,0-.3,0-.6-.2-.7-.3-.2-.7-.3-.9-.2h-.1Z"/>
      <path class="st0" d="M135.2,85.7c-.6,0-1.7.4-1.8.8-.4,1.3.4,2.2,1.7,2.1.5,0,.9-.9,1.3-1.4-.4-.5-.8-1.4-1.2-1.5Z"/>
      <path class="st0" d="M140.5,54.3c.1.7.5,1.3.7,1.9.3-.2.6-.5.9-.7-.2-.6-.5-1.3-.7-1.9-.3.2-.9.5-.8.7h-.1Z"/>
      <path class="st0" d="M141.2,69.3c.5-.2.6-1.3.9-2-.4-1-1.2-1.4-1.9-.7-.5.5-.7,1.3-1.1,2,.7.3,1.6.9,2.1.7Z"/>
      <path class="st0" d="M134.3,62c.6-.2,1.2-.5,1.8-.8-.2-.3-.5-.8-.7-.8-.6.2-1.2.5-1.8.8.2.3.5.8.7.8Z"/>
      <path class="st0" d="M140.1,40.7c-1,.4-1.4,1.2-.7,2,.4.6,1.3.8,2,1.2.3-.7.9-1.6.7-2.2-.2-.5-1.3-.7-1.9-1h0Z"/>
      <path class="st0" d="M135.2,110.8c-.6.3-1.5.6-1.7,1-.2.5.2,1.6.6,1.8,1.2.6,2.1-.1,2.2-1.3,0-.5-.8-1-1.2-1.5h0Z"/>
      <path class="st0" d="M140.5,107.2c0,.2.5.5.7.7.3-.6.6-1.1.9-1.7-.3-.2-.5-.5-.8-.7-.3.6-.6,1.1-.8,1.7Z"/>
      <path class="st0" d="M134.2,101.1c1.2.6,2.1-.1,2.2-1.4,0-.5-.8-1-1.2-1.5-.6.3-1.5.6-1.7,1-.2.5.2,1.6.7,1.9Z"/>
      <path class="st0" d="M94.7,47.7c-.6.7-.2,1.6.7,1.8.6,0,1.3-.4,2-.7-.2-.7-.5-1.4-.7-2.1-.7.3-1.5.5-1.9,1h-.1Z"/>
      <path class="st0" d="M95.5,73c-.9,0-1.2.9-.9,1.7.6.4,1.3.8,1.9,1.2.3-.7.9-1.4.8-2-.1-.4-1.2-1-1.8-.9Z"/>
      <path class="st0" d="M97,61.3c-.6-.3-1.1-.6-1.7-.8-.2.3-.4.6-.7.8.6.3,1.1.6,1.7.8.1,0,.4-.5.6-.8h0Z"/>
      <path class="st0" d="M95.7,86.5c.2.6.5,1.3.7,1.9.3-.2.9-.5.8-.7,0-.6-.5-1.2-.7-1.9-.3.2-.9.5-.8.7Z"/>
      <path class="st0" d="M96,112.2c0,.2.1.6.3.8,0,0,.5,0,.7-.2,0-.3.3-.7.1-.9-.5-.8-1-.7-1.2.3h0Z"/>
      <path class="st0" d="M108.2,87.7c0,.2.5.5.7.8l.9-1.8c-.3-.3-.5-.5-.8-.8-.3.6-.7,1.2-.9,1.8h0Z"/>
      <path class="st0" d="M109.9,48.6c-.3-.6-.5-1.2-.8-1.8-.3.2-.8.5-.8.6.1.6.5,1.2.7,1.8.3-.2.6-.4.9-.6Z"/>
      <path class="st0" d="M109.8,75c-.2-.6-.5-1.2-.8-1.8-.3.2-.8.5-.8.7.2.6.5,1.2.8,1.8.3-.2.8-.5.8-.6h0Z"/>
      <path class="st0" d="M108.3,111.8c.1.6.5,1.2.7,1.9.3-.2.6-.4.9-.7-.3-.6-.5-1.2-.8-1.9-.3.2-.9.5-.8.7Z"/>
      <path class="st0" d="M108.9,100.8c.3-.6.6-1.1.9-1.7-.3-.2-.5-.5-.8-.7-.3.6-.7,1.1-.8,1.7,0,.2.5.5.7.7Z"/>
      <path class="st0" d="M100.9,81.1c.2.5,1.3.6,2,.9,1-.3,1.4-1.1.8-1.9-.4-.5-1.3-.7-2-1-.3.7-.9,1.6-.7,2h0Z"/>
      <path class="st0" d="M103,66.1c-.6-.1-1.7.4-1.9.9-.5,1.3.3,2.2,1.6,2.2s1-.9,1.5-1.4c-.4-.6-.8-1.6-1.3-1.7h0Z"/>
      <path class="st0" d="M103.2,40.9c-.5-.2-1.7.2-1.9.7-.6,1.2.1,2.1,1.4,2.2.5,0,1-.8,1.5-1.2-.3-.6-.6-1.5-1.1-1.7h0Z"/>
      <path class="st0" d="M103.2,53.5c-.5-.2-1.6.2-1.9.7-.6,1.2,0,2.2,1.3,2.3.5,0,1-.8,1.6-1.2-.3-.6-.6-1.5-1-1.7h0Z"/>
      <path class="st0" d="M103.1,105.2c-.6,0-1.6.5-1.8,1-.5,1.2.2,2.1,1.4,2.4.6-.3,1.6-.5,1.8-1.1.5-1.2-.2-2.2-1.4-2.4h0Z"/>
      <path class="st0" d="M101.5,95.6c1.8,0,2.9-1,3-2.8,0-.4-.9-.9-1.4-1.2-1.4.2-2.4.9-2.6,2.1,0,.6.6,1.9.9,1.9h0Z"/>
      <path class="st0" d="M173.4,72.8c-.6-.1-1.7.2-1.9.6-.5,1.2.3,2.1,1.5,2.2.4,0,.9-.8,1.4-1.2-.3-.6-.6-1.5-1-1.6Z"/>
      <path class="st0" d="M172.8,99.1c.1.7.5,1.3.7,1.9.3-.2.6-.5.9-.7-.3-.6-.5-1.3-.8-1.9-.3.2-.9.5-.8.7Z"/>
      <path class="st0" d="M172.8,86.6c.2.6.5,1.2.8,1.8.3-.2.5-.5.8-.7-.3-.6-.6-1.2-.8-1.8-.3.2-.8.6-.8.7Z"/>
      <path class="st0" d="M179.6,105.1c-.5.3-1.5.5-1.7.9-.2.5.2,1.7.6,1.9,1.2.4,2.1-.3,2.3-1.5,0-.4-.8-.9-1.3-1.3h0Z"/>
      <path class="st0" d="M172.8,113c0,0,.5.5.8.7.3-.6.5-1.2.8-1.8-.3-.2-.6-.5-.8-.7-.3.6-.6,1.2-.8,1.8Z"/>
      <path class="st0" d="M180.3,92.7c-.6.1-1.2.5-1.9.7.2.3.5.9.7.8.6-.1,1.2-.5,1.9-.7-.2-.3-.5-.9-.7-.8Z"/>
      <path class="st0" d="M179.2,43.9c.5.2,1.6-.2,1.9-.7.7-1.2,0-2.1-1.4-2.2-.5,0-1,.8-1.5,1.2.3.6.6,1.6,1,1.7Z"/>
      <path class="st0" d="M178.1,79.8c0,.6.4,1.7.9,1.9s1.4-.4,2.1-.6c-.4-.6-.6-1.5-1.1-1.9-.8-.6-1.7-.3-1.9.6Z"/>
      <path class="st0" d="M171.7,61.2c.6.3,1.1.6,1.7.9.2-.3.5-.6.7-.8-.6-.3-1.1-.7-1.7-.8-.1,0-.5.5-.7.7Z"/>
      <path class="st0" d="M172.6,46.9c-.5.4-.6,1.3-.9,1.9.7.3,1.5.9,1.9.7.5-.2.6-1.2.8-1.9-.4-.9-1.1-1.3-1.8-.7Z"/>
      <path class="st0" d="M180.1,66c-.6,0-1.6.4-1.8.8-.5,1.3.3,2.2,1.6,2.1.5,0,.9-.9,1.4-1.4-.4-.5-.7-1.5-1.2-1.5Z"/>
      <path class="st0" d="M193.1,105.5c-.6-.2-1.6,0-2,.4-.9,1.1-.3,2.1.9,2.5.5,0,1.2-.6,1.9-.9.4-.9.2-1.7-.7-1.9h-.1Z"/>
      <path class="st0" d="M192.5,43.8c.5,0,1-.8,1.5-1.3-.3-.6-.6-1.5-1-1.7-.6-.1-1.7.3-1.9.7-.6,1.2.2,2.1,1.4,2.2h0Z"/>
      <path class="st0" d="M193,66.1c-.5-.2-1.6.2-1.9.7-.7,1.2,0,2.1,1.3,2.3.5,0,1.1-.7,1.6-1.1-.3-.6-.5-1.6-1-1.8h0Z"/>
      <path class="st0" d="M186,88.5c.3-.6.6-1.2.9-1.8-.3-.3-.5-.6-.8-.8-.3.6-.7,1.2-.9,1.8,0,.2.5.5.7.8h.1Z"/>
      <path class="st0" d="M193,78.9c-1.4.2-2.1,1-2.3,2.3,0,.2.5.6.9.7,1.3.3,2.2-.3,2.4-1.5,0-.4-.7-1-1-1.4h0Z"/>
      <path class="st0" d="M192.9,92.7c-.7.2-1.4.5-2,.8.2.3.6.9.7.9.7-.2,1.4-.5,2-.8-.2-.3-.6-.9-.7-.9Z"/>
      <path class="st0" d="M185.3,111.8c.1.7.5,1.3.7,1.9.3-.2.9-.5.8-.7-.1-.7-.5-1.3-.7-1.9-.3.2-.9.5-.8.7Z"/>
      <path class="st0" d="M186,75.8c.3-.6.6-1.2.9-1.8l-.8-.8c-.3.6-.7,1.2-.9,1.8,0,.2.5.5.7.7h.1Z"/>
      <path class="st0" d="M185.9,63.1c.3-.2.9-.4.9-.6-.1-.6-.4-1.2-.6-1.8-.3.2-.9.4-.9.6.1.6.4,1.2.7,1.9h-.1Z"/>
      <path class="st0" d="M186.9,48.5c-.3-.6-.5-1.2-.8-1.8-.3.2-.8.5-.8.6.1.6.5,1.2.7,1.8.3-.2.6-.4.9-.6Z"/>
      <path class="st0" d="M191.5,56.4c1.3.6,2.2,0,2.3-1.4,0-.5-.8-1.1-1.3-1.6-.6.3-1.6.6-1.8,1.1-.2.5.2,1.7.7,1.9h.1Z"/>
      <path class="st0" d="M180.4,53.5c-.5-.2-1.6.2-1.9.6-.7,1.2,0,2.1,1.2,2.3.5,0,1.1-.7,1.6-1.1-.3-.6-.5-1.6-.9-1.8Z"/>
      <path class="st0" d="M159.9,73.1c-.8.5-.7,1,.3,1.2.2,0,.6-.2.9-.3,0-.3,0-.6-.2-.8-.3-.2-.7-.3-.9-.2h-.1Z"/>
      <path class="st0" d="M160.4,88.6c.5,0,.9-1,1.3-1.5-.4-.5-.7-1.4-1.2-1.5-.6,0-1.6.4-1.8.9-.4,1.3.4,2.2,1.7,2.1Z"/>
      <path class="st0" d="M160.8,60.5c-.6.2-1.2.5-1.8.7.2.3.5.8.6.8.6,0,1.2-.4,1.8-.7-.2-.3-.5-.9-.6-.8Z"/>
      <path class="st0" d="M153.7,56.2c.3-.2.9-.5.8-.7,0-.7-.5-1.3-.7-1.9-.3.2-.9.5-.8.7.1.7.5,1.3.7,1.9Z"/>
      <path class="st0" d="M153.2,95.5c.5,0,1-.8,1.5-1.2-.3-.6-.5-1.6-.9-1.8-.5-.2-1.7.2-1.9.7-.6,1.2,0,2.1,1.3,2.3Z"/>
      <path class="st0" d="M154.5,42.9c0-.6-.4-1.3-.6-1.9-.3.2-.9.5-.9.6.1.6.4,1.3.7,1.9.3-.2.9-.5.8-.6Z"/>
      <path class="st0" d="M152.6,104.9c-.5.3-1,1.5-.8,2,.5,1.3,1.7,1.8,2.9.9.5-.4.6-1.3.9-2-.8-1.2-1.9-1.6-3.1-.9h.1Z"/>
      <path class="st0" d="M154.5,78.2c-1.7-.3-2.4.5-2.8,1.7-.5,1.4.4,2.3,1.6,2.6,1.2.3,2.3-.4,2.5-1.6.2-1.2-.4-2.2-1.4-2.6h0Z"/>
      <path class="st0" d="M161.6,100.4c.2-.5-.2-1.6-.6-1.9-1.2-.7-2.1,0-2.3,1.2,0,.5.7,1.1,1.1,1.6.6-.3,1.6-.5,1.8-.9Z"/>
      <path class="st0" d="M166.3,79c-.3.7-.9,1.5-.7,2,.2.5,1.2.6,1.8.9,1-.4,1.3-1.1.7-1.9-.4-.5-1.2-.7-1.9-1h.1Z"/>
      <path class="st0" d="M166.2,54c-.9,1.1-.3,2.1.9,2.5.5.1,1.2-.6,1.8-.9-.2-.7-.3-1.6-.8-1.9-.4-.3-1.6,0-1.9.4h0Z"/>
      <path class="st0" d="M168.3,93.6c-.2-.3-.5-.8-.6-.8-.6.1-1.2.4-1.8.7.2.3.5.9.6.8.6-.1,1.2-.5,1.8-.7Z"/>
      <path class="st0" d="M166.3,69.3c.5.2,1.7-.2,1.9-.6.4-1.2-.3-2.1-1.5-2.3-.4,0-.9.8-1.3,1.3.3.5.5,1.5.9,1.6Z"/>
      <path class="st0" d="M167.4,105.2c-.6,0-1.8.4-2,.8-.2.5.4,1.4.7,2.1.7-.3,1.6-.5,2-1.1.6-.8.2-1.7-.8-1.9h.1Z"/>
      <path class="st0" d="M160,34.3c-.5.4-.8,1.3-1.1,1.9.7.3,1.5.9,2,.7.5-.2.9-1.3.9-1.9-.1-1-1-1.3-1.8-.7Z"/>
      <path class="st0" d="M159.2,112.1c-.7.8-.4,1.5.6,1.9.7-.3,1.7-.4,1.9-.9.2-.5-.4-1.3-.6-2-.7.3-1.5.5-1.9,1Z"/>
      <path class="st0" d="M160,46.9c-.5.4-.7,1.2-1.1,1.9.7.3,1.5.9,2,.7.5-.2.9-1.2.9-1.8-.1-1-1.1-1.3-1.8-.7h0Z"/>
      <path class="st0" d="M167.5,40.7c-.7.3-1.7.4-1.9.9-.2.5.4,1.4.6,2.1.7-.3,1.5-.5,2-1,.6-.7.3-1.5-.6-1.9h0Z"/>
    </g>
  </g>
</svg>